DBRep_DrawableShape

CASCADE Topology V1, (c) Matra-Datavision
Locations 99
1
              1               0               0               0 
              0               1               0               0 
              0               0               1               0 
1
              1               0               0               0 
              0               1               0               0 
              0               0               1               0 
1
              1               0               0               0 
              0               1               0               0 
              0               0               1               0 
2  2 1 3 1 0
2  1 -1 3 -1 2 -1 0
2  3 -1 2 -1 0
1
              1               0               0               0 
              0              -0              -1               0 
              0               1              -0               0 
1
              1               0               0               0 
              0               1               0           2e-15 
              0               0               1               5 
1
              1               0               0               0 
              0               1               0               0 
              0               0               1               0 
1
              1               0               0               0 
              0               1               0               0 
              0               0               1               0 
2  7 -1 8 1 9 1 10 1 0
2  9 1 10 1 0
2  9 1 10 1 2 1 0
2  10 -1 9 -1 0
2  1 -1 2 -1 10 -1 0
2  1 -1 2 -1 0
1
              1               0               0               0 
              0               1               0               0 
              0               0               1               0 
1
              1               0               0               0 
              0               0              -1              -4 
              0               1               0               0 
2  17 1 18 1 7 -1 9 1 10 1 0
2  7 1 18 -1 17 -1 0
2  18 -1 17 -1 0
2  1 -1 2 -1 10 -1 9 -1 7 1 18 -1 17 -1 0
2  2 -1 10 -1 9 -1 0
2  1 -1 2 -1 10 -1 9 -1 0
2  10 1 2 1 0
2  10 -1 0
2  7 -1 9 1 0
2  7 -1 9 1 10 1 2 1 0
2  17 1 18 1 7 -1 9 1 10 1 2 1 0
2  2 -1 10 -1 9 -1 7 1 18 -1 17 -1 0
1
              1               0               0               0 
              0               1               0               0 
              0               0               1               0 
1
              1               0               0               0 
              0               0              -1               0 
              0               1               0               0 
1
              1               0               0               0 
              0              -0              -1               0 
              0               1              -0               0 
1
              1               0               0              -0 
              0               1               0          -2e-15 
              0               0               1              -4 
1
              1               0               0               0 
              0               1               0           4e-15 
              0               0               1               8 
1
              1               0               0               0 
              0              -0              -1               0 
              0               1              -0               0 
1
              1               0               0               0 
              0              -0              -1               0 
              0               1              -0               0 
1
              1               0               0               0 
              0              -0              -1               0 
              0               1              -0               0 
1
              1               0               0               0 
              0              -0              -1               0 
              0               1              -0               0 
1
              1               0               0               0 
              0              -0              -1               0 
              0               1              -0               0 
1
              1               0               0               0 
              0              -0              -1               0 
              0               1              -0               0 
1
              1               0               0               0 
              0              -0              -1               0 
              0               1              -0               0 
2  31 1 32 1 33 -1 34 1 35 1 36 1 37 -1 38 1 39 -1 40 1 41 -1 42 1 7 -1 9 1 10 1 2 1 0
2  42 -1 41 1 40 -1 39 1 38 -1 37 1 36 -1 35 -1 34 -1 33 1 32 -1 31 -1 0
2  35 -1 34 -1 33 1 32 -1 31 -1 0
2  1 -1 2 -1 10 -1 9 -1 7 1 42 -1 41 1 40 -1 39 1 38 -1 37 1 36 -1 35 -1 34 -1 33 1 32 -1 31 -1 0
2  2 -1 0
2  7 -1 8 1 9 1 10 1 2 1 0
2  10 -1 9 -1 8 -1 7 1 0
2  36 1 37 -1 38 1 39 -1 40 1 41 -1 42 1 7 -1 9 1 10 1 2 1 0
2  31 1 32 1 33 -1 34 1 36 1 37 -1 38 1 39 -1 40 1 41 -1 42 1 7 -1 9 1 10 1 2 1 0
2  34 -1 33 1 32 -1 31 -1 0
2  7 -1 9 1 10 1 2 1 3 1 2 -1 10 -1 9 -1 7 1 42 -1 41 1 40 -1 39 1 38 -1 37 1 36 -1 34 -1 33 1 32 -1 31 -1 0
2  1 -1 2 -1 10 -1 9 -1 7 1 42 -1 41 1 40 -1 39 1 38 -1 37 1 36 -1 34 -1 33 1 32 -1 31 -1 0
2  1 -1 2 -1 10 -1 9 -1 7 1 42 -1 41 1 40 -1 39 1 38 -1 37 1 36 -1 0
2  38 1 39 -1 40 1 41 -1 42 1 7 -1 9 1 10 1 2 1 0
2  36 1 37 -1 0
2  2 -1 10 -1 9 -1 7 1 42 -1 41 1 40 -1 39 1 38 -1 0
2  1 -1 2 -1 10 -1 9 -1 7 1 42 -1 41 1 40 -1 39 1 38 -1 0
2  7 -1 9 1 10 1 2 1 3 1 0
2  17 1 18 1 7 -1 9 1 10 1 2 1 3 1 0
2  1 -1 3 -1 2 -1 10 -1 9 -1 7 1 18 -1 17 -1 0
2  10 1 2 1 3 1 0
2  1 -1 3 -1 2 -1 10 -1 0
2  3 -1 2 -1 10 -1 9 -1 7 1 18 -1 17 -1 0
2  9 1 10 1 2 1 3 1 0
2  3 -1 2 -1 10 -1 9 -1 0
2  1 -1 3 -1 2 -1 10 -1 9 -1 0
2  7 -1 8 1 9 1 10 1 2 1 3 1 0
2  33 -1 34 1 35 1 36 1 37 -1 38 1 39 -1 40 1 41 -1 42 1 18 -1 17 -1 0
2  33 -1 34 1 36 1 37 -1 38 1 39 -1 40 1 41 -1 42 1 7 -1 9 1 10 1 2 1 3 -1 2 -1 10 -1 9 -1 7 1 18 -1 17 -1 0
2  33 -1 34 1 35 1 36 1 37 -1 38 1 39 -1 40 1 41 -1 42 1 7 -1 9 1 10 1 2 1 0
1
              1               0               0               0 
              0               1               0               0 
              0               0               1               0 
1
              1               0               0               0 
              0               0              -1              -4 
              0               1               0               0 
2  73 1 74 1 37 -1 38 1 39 -1 40 1 41 -1 42 1 7 -1 9 1 10 1 2 1 0
2  33 -1 34 1 35 1 36 1 74 -1 73 -1 0
2  37 1 74 -1 73 -1 0
2  1 -1 2 -1 10 -1 9 -1 7 1 42 -1 41 1 40 -1 39 1 38 -1 37 1 74 -1 73 -1 0
2  42 1 7 -1 9 1 10 1 2 1 0
2  33 -1 34 1 35 1 36 1 37 -1 38 1 39 -1 40 1 41 -1 0
2  1 -1 2 -1 10 -1 9 -1 7 1 42 -1 0
1
              1               0               0               0 
              0               1               0               0 
              0               0               1               0 
1
             -1               0               0               0 
              0              -1               0           4e-15 
              0               0               1              20 
2  82 1 83 1 41 -1 42 1 7 -1 9 1 10 1 2 1 0
2  38 1 39 -1 40 1 83 -1 82 -1 0
2  41 1 83 -1 82 -1 0
2  1 -1 2 -1 10 -1 9 -1 7 1 42 -1 41 1 83 -1 82 -1 0
1
              1               0               0               0 
              0               1               0          -4e-15 
              0               0               1              -8 
2  73 1 74 1 37 -1 88 1 38 1 39 -1 40 1 41 -1 42 1 7 -1 9 1 10 1 2 1 0
2  88 -1 37 1 74 -1 73 -1 0
2  33 -1 34 1 36 1 37 -1 88 -1 37 1 74 -1 73 -1 0
2  1 -1 2 -1 10 -1 9 -1 7 1 42 -1 41 1 40 -1 39 1 38 -1 88 -1 37 1 74 -1 73 -1 0
1
              1               0               0              -0 
              0               1               0             -40 
              0               0               1           9e-15 
2  82 1 83 1 41 -1 93 1 42 1 7 -1 9 1 10 1 2 1 0
2  38 1 39 -1 40 1 41 -1 93 -1 41 1 83 -1 82 -1 0
2  93 -1 41 1 83 -1 82 -1 0
2  1 -1 2 -1 10 -1 9 -1 7 1 42 -1 93 -1 41 1 83 -1 82 -1 0
2  33 -1 34 1 36 1 37 -1 38 1 39 -1 40 1 41 -1 0
2  33 -1 34 1 36 1 37 -1 38 1 39 -1 40 1 41 -1 42 1 7 -1 9 1 10 1 2 1 0
Curve2ds 172
1 9.3333333333333233 11.07800623858925 0.57735026918962551 0.81649658092772626 
1 40.666666666666657 11.078006238589239 -0.57735026918962584 0.81649658092772603 
1 9.8999999999999992e-16 -2.1213203435596424 1 -7.0710678118655483e-18 
1 -6.0000000000000098 45.000000000000007 4.5000000000000002e-16 -1 
1 -9.9000000000000051e-16 2.1213203435596433 1 -7.0710678118655483e-18 
1 -45.000000000000007 24.5 1 0 
1 73.999999999999972 20.506096654409891 -0.57735026918962618 0.81649658092772581 
1 16 20.506096654409895 0.57735026918962562 0.81649658092772626 
1 0 -2.1213203435596428 1 0 
1 4.4408920985006262e-16 -2.0000000000000098 1 0 
1 0 2.1213203435596433 1 0 
1 41.999999999999993 27.5 -0 -1 
1 50 0 0 1 
1 0 2.1213203435596419 0 1 
1 50 0 0 -1 
1 0 0 0 1 
1 4.4408920985006262e-16 -2.0000000000000089 1 0 
1 0 -2.1213203435596428 1 0 
1 0 -1.865174681370263e-14 1 0 
1 45 27.5 -0 -1 
1 0 0 0 -1 
1 3.9999999999999813 -44.999999999999993 1 -4.4e-16 
1 0 2.0000000000000089 1 0 
1 0 0 1 0 
1 -3.1415926535897931 8.8800000000000007e-15 1 0 
2 40 -22.5 -1 0 0 1 5
1 1.5707963267948966 0 0 1 
1 5 2.118215802998747e-16 0 -1 
1 16 20.506096654409895 0.57735026918962562 0.81649658092772626 
1 73.999999999999986 20.506096654409891 -0.57735026918962618 0.81649658092772581 
1 -0 2.1213203435596419 1 0 
1 42 27.5 -0 -1 
1 50 0 -0 1 
1 0 2.1213203435596419 0 1 
1 -45 27.5 1 0 
1 4 45.000000000000007 0 -1 
1 45 -27.5 -1 0 
1 4.1033842990145787e-30 -1.865174681370263e-14 1 4.4e-16 
1 31.5 72.5 -0 -1 
1 0 -8.0000000000000124 1 0 
2 -40 -22.5 -1 0 0 1 5
1 -4.7123889803846897 -8.8800000000000007e-15 1 0 
1 31.5 -13.5 -1 0 
1 1.7600000000000028e-15 -8.0000000000000124 1 4.4e-16 
1 -45 -27.5 0 1 
1 0 2.042810365310288e-14 1 0 
1 -31.5 -13.5 0 1 
1 0 -7.999999999999984 1 0 
1 -45 27.5 1 0 
1 4 45.000000000000007 0 -1 
1 0 4.2426406871192848 1 0 
2 40 -22.5 1 0 0 -1 2
1 1.5707963267948966 0 0 1 
1 -3.4499999999999999e-16 -2.1213203435596428 2.0263455967290589e-16 1 
1 5 -2.0000000000000089 1 0 
1 -3.4499999999999999e-16 -2.1213203435596428 1 -7.0710678118654743e-18 
1 85 4.8253186297368695e-17 0 -1 
1 0 0 0 1 
1 9.3333333333333268 11.078006238589252 0.57735026918962562 0.81649658092772626 
1 40.666666666666657 11.078006238589243 -0.57735026918962584 0.81649658092772603 
1 3.2999999999999994e-16 -2.1213203435596424 1 0 
1 6.0000000000000115 45.000000000000007 -4.4e-16 -1 
1 -3.2999999999999979e-16 2.1213203435596411 1 0 
1 -45 24.5 1 0 
1 -42 -22.5 0 1 
1 0 2.1213203435596433 1 0 
1 40 -24.5 -1 0 
1 3.4499999999999999e-16 2.1213203435596428 1 -7.0710678118654743e-18 
2 -40 -22.5 -0 -1 -1 0 2
1 0 4.2426406871192848 1 0 
1 0 -1.6431300764452317e-14 1 0 
1 31.499999999999996 72.5 0 -1 
1 86 0 0 -1 
1 0 0 0 -1 
1 45 -8 -0 1 
1 3.9999999999999867 -31.5 -1 4.4e-16 
1 0 1.9999999999999911 1 0 
1 0 0 1 0 
1 1.5707963267948966 0 0 1 
1 5 0 0 -1 
1 63 -3.5085471520200333e-16 0 -1 
1 0 0 0 -1 
1 3.6148861681795099e-30 -1.6431300764452317e-14 1 4.4e-16 
1 31.499999999999996 -13.5 -1 0 
1 5 -1.9999999999999911 1 0 
1 0 -2.1213203435596428 1 0 
1 55 0 0 -1 
1 4.0000000000000204 45.000000000000007 1 -4.4e-16 
1 0 1.2434497875801753e-14 1 0 
1 -31.500000000000004 -13.5 0 1 
1 41 -8 0 1 
1 4.0000000000000151 31.500000000000014 -1 4.4e-16 
1 80 2.6901598130052764e-15 2.6345596729059224e-18 1 
1 0 2.1213203435596455 0 1 
1 0 -2.1213203435596433 4.0000000000000003e-17 1 
1 1.5707963267948966 0 0 1 
1 45 27.5 -0 -1 
1 0 1.865174681370263e-14 1 0 
2 40 -22.5 -1 0 0 1 5
1 -3.1415926535897931 8.8800000000000007e-15 1 0 
1 -45 27.5 1 0 
1 -4.00000000000004 45.000000000000007 8.9000000000000007e-16 -1 
1 45 -27.5 -1 0 
1 -1.2496670365180762e-29 1.865174681370263e-14 1 -4.4000000000000005e-16 
2 -40 -22.5 -1 0 0 1 5
1 -4.7123889803846897 -8.8800000000000007e-15 1 0 
1 -45 -27.5 0 1 
1 0 -2.1316282072803006e-14 1 0 
1 -45 27.5 1 0 
1 -4.00000000000004 45.000000000000007 8.9000000000000007e-16 -1 
1 50 0 0 -1 
1 0 0 0 1 
1 0 -0 0 -1 
1 -3.9999999999999787 -44.999999999999993 -1 -4.5000000000000002e-16 
1 0 2.0000000000000089 1 0 
1 0 0 1 0 
1 1.5707963267948966 0 0 1 
1 5 -2.0271367880050053e-16 0 -1 
1 5.0000000000000018 -2.0000000000000089 1 0 
1 -1.005e-15 -2.1213203435596428 1 0 
1 85 1.065811391919848e-16 0 -1 
1 0 0 0 1 
1 0 1.9999999999999911 1 0 
1 0 0 1 0 
1 1.5707963267948966 0 0 1 
1 5 0 0 -1 
1 5 -1.9999999999999911 1 0 
1 0 -2.1213203435596428 1 0 
1 55 0 0 -1 
1 -4.0000000000000187 45.000000000000007 -1 -4.5000000000000002e-16 
1 0 4.2426406871192848 1 0 
2 39.999999999999993 -22.5 1 0 0 -1 2
1 1.5707963267948966 0 0 1 
1 -1.005e-15 -2.1213203435596428 2.0376154339498695e-16 1 
1 1.005e-15 2.1213203435596428 1 0 
1 39.999999999999993 -24.5 -1 0 
1 80 3.5495174376527095e-15 3.7615433949868593e-18 1 
1 0 2.1213203435596455 0 1 
1 0 4.2426406871192848 1 0 
2 -40.000000000000007 -22.5 -0 -1 -1 0 2
1 1.5707963267948966 0 0 1 
1 0 -2.1213203435596428 4.0000000000000003e-17 1 
1 0 2.1213203435596419 1 0 
1 -42.000000000000007 -22.5 0 1 
1 4 45.000000000000007 0 -1 
1 -45 -2.0000000000000013 1 0 
1 3.999999999999992 -19.999999999999993 -1 4.4e-16 
1 0 0 0 -1 
1 -4.00000000000004 45.000000000000007 8.9000000000000007e-16 -1 
1 -45 -2.0000000000000013 1 0 
1 4.0000000000000098 20.000000000000007 -1 4.4e-16 
1 45.000000000000007 0 0 -1 
1 -20 43.000000000000007 -0 -1 
1 0 -9.7699626167013776e-15 1 0 
1 20 24.000000000000124 -1 0 
1 1.5707963267948966 0 0 -1 
1 20 -2 0 1 
1 0 7.9936057773011271e-15 1 0 
2 26.000000000000124 -3.9999999999998748 -1 0 0 1 3.9999999999998828
1 2.2e-16 0 1 0 
2 26.000000000000124 -3.9999999999998748 -1 0 0 1 3.9999999999998828
1 0 0 1 0 
1 0 -7.9999999999999876 1 0 
1 20 -2 0 1 
1 0 -8.0000000000000053 1 0 
1 -20 43.000000000000007 -0 -1 
2 18.999999999999883 -3.9999999999998908 1 0 -0 1 3.9999999999998828
1 0 -40 1 0 
2 18.999999999999883 -3.9999999999998908 1 0 -0 1 3.9999999999998828
1 2.2e-16 -40 1 0 
1 4.7123889803846897 0 0 -1 
1 20 24.000000000000124 -1 0 
Curves 86
8 -16.165807537309522 -10.96965511460289
1 -11.333333333333341 15.33333333333335 -35.666666666666671 -0.57735026918962584 0.57735026918962562 0.57735026918962584 
1 -2.0000000000000004 6.0000000000000204 -45 0 -6.7000000000000004e-16 1 
1 -5 9.0000000000000213 -45 0 -6.7000000000000004e-16 1 
8 -27.712812921102053 -22.516660498395424
1 -18.000000000000004 21.999999999999986 28.999999999999989 -0.57735026918962562 0.57735026918962606 -0.57735026918962584 
1 -2.0000000000000018 5.9999999999999796 45 -1 0 0 
1 -2.0000000000000018 8.9999999999999805 42 -1 0 0 
1 -52 7.4999999999999796 43.5 -0 0.70710678118654768 -0.70710678118654746 
1 -52 -3.9999999999999902 45 0 -1 2.2e-16 
1 -2.0000000000000018 -5.9999999999999991 45 -1 -0 0 
1 -2.0000000000000013 -4.0000000000000089 41 -1 -0 0 
1 -2.0000000000000013 -3.9999999999999902 45 0 -1 2.2e-16 
2 -52 -6 40 0 -1 0 0 0 1 -1 0 0 5
8 3.1415926535897931 4.7123889803846897
2 -52 -4 40 0 -1 2.2e-16 0 -2.2e-16 -1 1 0 0 5
1 -57 -3.9999999999999911 40 0 -1 2.2e-16 
8 -27.712812921102053 -22.516660498395424
1 -18.000000000000004 -22 28.999999999999982 -0.57735026918962562 -0.57735026918962584 -0.57735026918962606 
1 -2.0000000000000018 -8.9999999999999982 42 -1 -0 0 
1 -52 -7.4999999999999991 43.5 0 -0.70710678118654746 -0.70710678118654768 
1 -2.0000000000000013 -3.9999999999999893 -49 0 -2.2e-16 1 
1 -57 -4.0000000000000089 41 0 2.2e-16 -1 
1 43 -4.0000000000000071 27.5 -1 -0 0 
8 4.7123889803846897 6.2831853071795862
2 -52 -4 -40 0 -1 2.2e-16 0 -2.2e-16 -1 1 0 0 5
1 -43 -4.0000000000000071 27.5 0 2.2e-16 -1 
1 -57 -3.9999999999999893 -49 1 0 0 
1 -43 -3.9999999999999929 -35.5 1 0 0 
1 -2.0000000000000013 -3.9999999999999893 -49 0 -2.2e-16 1 
2 -52 -9 40 0 -1 0 0 0 1 -1 0 0 2
1 -57 -6 40 0.70710678118654735 -0.70710678118654768 -4.0000000000000003e-17 
1 -57 -6 40 0 -2.2e-16 -1 
1 -57 -4.0000000000000089 -40 0 -1 2.2e-16 
8 -16.165807537309522 -10.96965511460289
1 -11.333333333333341 -15.333333333333336 -35.666666666666671 -0.57735026918962584 -0.57735026918962584 0.57735026918962562 
1 -2.0000000000000004 -6.0000000000000009 -45 0 2.2e-16 1 
1 -5 -9 -45 0 2.2e-16 1 
1 -52 -9.0000000000000018 -42 1 0 0 
1 -54 -9 40 0 -2.2e-16 -1 
2 -52 -9 -40 0 -1 -0 -1 0 -0 0 0 -1 2
1 43 3.9999999999999929 35.5 -1 -0 0 
1 -43 4.0000000000000071 31.5 0 -1 2.2e-16 
1 -2 -3.9999999999999929 31.500000000000007 0 1 -2.2e-16 
2 -52 -6 -40 0 -1 -0 -1 0 -0 0 0 -1 5
1 -52 -4.0000000000000098 -45 0 -1 2.2e-16 
1 -43 3.9999999999999929 -31.5 0 -1 2.2e-16 
1 -43 3.9999999999999929 35.5 0 2.2e-16 -1 
1 -52 -6.0000000000000009 -45 1 0 0 
1 -2.0000000000000009 -4.0000000000000098 -45 0 -1 2.2e-16 
1 -43 4.0000000000000071 -27.5 1 0 0 
1 -2 -4.0000000000000071 -31.500000000000007 0 1 -2.2e-16 
1 -55.499999999999986 -7.5000000000000071 -40 0.70710678118654757 -0.70710678118654757 1.6000000000000001e-16 
1 -52 -6 -45 4.0000000000000003e-17 -0.70710678118654768 0.70710678118654735 
1 -2.0000000000000013 3.9999999999999512 41 -1 0 0 
8 3.1415926535897931 4.7123889803846897
2 -52 3.9999999999999822 40 0 -1 -6.7000000000000004e-16 -0 6.7000000000000004e-16 -1 1 0 0 5
1 -2.0000000000000013 4.0000000000000506 -49 0 -1.1100000000000001e-15 1 
1 -57 3.9999999999999512 41 -0 1.1100000000000001e-15 -1 
8 4.7123889803846897 6.2831853071795862
2 -52 4.0000000000000178 -40 0 -1 -6.7000000000000004e-16 -0 6.7000000000000004e-16 -1 1 0 0 5
1 -57 4.0000000000000506 -49 1 0 0 
1 -2.0000000000000013 4.0000000000000506 -49 0 -1.1100000000000001e-15 1 
1 -52 3.9999999999999698 45 0 1 6.7000000000000004e-16 
1 -2.0000000000000013 3.9999999999999698 45 0 1 6.7000000000000004e-16 
2 -52 5.9999999999999822 40 -0 -1 -4.4e-16 0 -4.4e-16 1 -1 0 0 5
1 -57 3.9999999999999734 40 0 1 6.7000000000000004e-16 
1 -57 5.9999999999999822 40 -0 6.7000000000000004e-16 -1 
1 -57 4.0000000000000266 -40 0 1 6.7000000000000004e-16 
2 -52 6.0000000000000178 -40 -0 -1 -4.4e-16 -1 0 0 0 4.4e-16 -1 5
1 -52 4.0000000000000293 -45 0 1 6.7000000000000004e-16 
1 -52 6.0000000000000204 -45 1 0 0 
1 -2.0000000000000009 4.0000000000000293 -45 0 1 6.7000000000000004e-16 
2 -52 8.9999999999999822 40 -0 -1 -4.4e-16 0 -4.4e-16 1 -1 0 0 2
1 -57 5.9999999999999822 40 0.70710678118654735 0.70710678118654768 2.7e-16 
1 -54 8.9999999999999822 40 -0 6.7000000000000004e-16 -1 
1 -55.499999999999986 7.5000000000000249 -40 0.70710678118654757 0.70710678118654757 4.7000000000000004e-16 
2 -52 9.0000000000000178 -40 -0 -1 -4.4e-16 -1 0 0 0 4.4e-16 -1 2
1 -52 6.0000000000000195 -45 4.0000000000000003e-17 0.70710678118654746 0.70710678118654757 
1 -52 9.0000000000000195 -42 1 0 0 
1 -2.0000000000000013 -3.9999999999999893 -49 0 -2.2e-16 1 
1 -2 -3.9999999999999956 20 0 1 -2.2e-16 
1 -2.0000000000000013 4.0000000000000506 -49 0 -1.1100000000000001e-15 1 
1 -2 -4.0000000000000044 -20 0 1 -2.2e-16 
1 43.000000000000007 -3.9999999999999947 -24 -1 -0 0 
1 24.000000000000124 -3.9999999999999982 20 0 0 -1 
1 -2 -4.0000000000000036 15.999999999999998 1 0 0 
2 -24.000000000000124 20.000000000000004 -20.000000000000121 0 1 -2.2e-16 1 0 0 0 -2.2e-16 -1 3.9999999999998819
2 -24.000000000000124 20.000000000000004 -20.000000000000121 0 1 -2.2e-16 1 0 0 0 -2.2e-16 -1 3.9999999999998819
1 -2 3.9999999999999964 24 1 0 0 
1 43.000000000000007 4.0000000000000053 -16 -1 -0 0 
2 -24.000000000000124 -19.999999999999996 19.999999999999886 0 1 -2.2e-16 1 0 0 0 -2.2e-16 -1 3.9999999999998819
2 -24.000000000000124 -19.999999999999996 19.999999999999886 0 1 -2.2e-16 1 0 0 0 -2.2e-16 -1 3.9999999999998819
1 24.000000000000124 3.9999999999997655 20 0 0 -1 
Polygon3D 0
PolygonOnTriangulations 0
Surfaces 35
1 -3.5 7.5000000000000204 -45 -0.70710678118654757 -0.70710678118654746 -3.9999999999999999e-16 4.7157287525380965e-17 -6.1284271247461901e-16 1 -0.70710678118654746 0.70710678118654757 4.6669047558312136e-16 
1 -52 7.5000000000000204 -43.5 -0 0.70710678118654768 -0.70710678118654746 1 0 0 -0 0.70710678118654746 0.70710678118654768 
1 -2.0000000000000004 7.3000000000000003e-16 8.8100000000000008e-15 1 0 0 0 -1 -2.2e-16 0 2.2e-16 -1 
1 -29.5 4.9999999999999929 9 -0 6.7000000000000004e-16 -1 0 -1 -6.7000000000000004e-16 1 0 -0 
1 -2.0000000000000018 7.4999999999999796 43.5 0 0.70710678118654746 0.70710678118654768 -1 0 0 -0 0.70710678118654768 -0.70710678118654746 
1 -2.0000000000000013 3.9999999999999698 45 -0 6.7000000000000004e-16 -1 -1 0 0 -0 -1 -6.7000000000000004e-16 
3 -52 5.9999999999999822 40 0 1 4.4e-16 0 -4.4e-16 1 -1 -0 0 5
-0.78539816339744806
1 -2.0000000000000013 -3.9999999999999902 45 0 -2.2e-16 -1 -1 -0 0 -0 1 -2.2e-16 
2 -52 -3.9999999999999911 40 0 -1 2.2e-16 0 2.2e-16 1 -1 0 0 5
1 -2.0000000000000018 -7.4999999999999991 43.5 0 -0.70710678118654768 0.70710678118654746 -1 0 0 -0 -0.70710678118654746 -0.70710678118654768 
1 -29.5 8.9000000000000007e-16 -4 0 -2.2e-16 1 0 -1 -2.2e-16 1 0 0 
3 -52 -6 40 0 -1 0 0 0 1 -1 0 0 5
-0.78539816339744806
1 -57 -3.9999999999999902 45 1 0 0 0 -2.2e-16 -1 0 1 -2.2e-16 
1 -3.5 -7.5000000000000009 -45 -0.70710678118654757 0.70710678118654746 -8.0000000000000006e-17 5.3431457505076181e-17 1.6656854249492381e-16 1 -0.70710678118654746 -0.70710678118654757 1.5556349186104046e-16 
1 -29.5 5.0000000000000009 -9 0 -2.2e-16 1 0 -1 -2.2e-16 1 0 0 
1 43 4.0000000000000071 31.5 0 -2.2e-16 -1 -1 -0 0 -0 1 -2.2e-16 
2 -52 -4.0000000000000089 -40 0 -1 2.2e-16 -1 0 0 -0 -2.2e-16 -1 5
1 -43 4.0000000000000071 31.5 1 0 0 0 -2.2e-16 -1 0 1 -2.2e-16 
1 -57 -4.0000000000000098 -45 0 2.2e-16 1 1 0 -0 -0 1 -2.2e-16 
1 -43 3.9999999999999929 -31.5 0 2.2e-16 1 1 0 -0 -0 1 -2.2e-16 
1 -55.5 -7.5 40 -0.70710678118654757 -0.70710678118654757 -4.0000000000000003e-17 1.4328427124746189e-16 -8.6715728752538098e-17 -1 0.70710678118654757 -0.70710678118654757 1.6263455967290593e-16 
1 -52 -7.5000000000000009 -43.5 0 -0.70710678118654746 -0.70710678118654768 1 0 0 0 -0.70710678118654768 0.70710678118654746 
3 -52 -6 -40 0 -1 0 -1 0 0 -0 -0 -1 5
-0.78539816339744806
1 -29.5 -2.6599999999999998e-15 4 -0 6.7000000000000004e-16 -1 0 -1 -6.7000000000000004e-16 1 0 -0 
2 -52 3.9999999999999734 40 0 1 6.7000000000000004e-16 0 -6.7000000000000004e-16 1 -1 -0 0 5
1 -57 3.9999999999999698 45 1 0 0 0 6.7000000000000004e-16 -1 0 -1 -6.7000000000000004e-16 
2 -52 4.0000000000000266 -40 0 1 6.7000000000000004e-16 -1 0 0 -0 6.7000000000000004e-16 -1 5
1 -57 4.0000000000000293 -45 0 -6.7000000000000004e-16 1 1 0 0 0 -1 -6.7000000000000004e-16 
1 -55.5 7.4999999999999822 40 -0.70710678118654757 0.70710678118654757 2.8000000000000001e-16 1.3701010126776671e-16 5.329898987322333e-16 -1 0.70710678118654757 0.70710678118654757 4.737615433949869e-16 
3 -52 6.0000000000000178 -40 0 1 4.4e-16 -1 0 0 -0 4.4e-16 -1 5
-0.78539816339744806
1 0 4 -4.0000000000000009 0 -2.2e-16 1 0 -1 -2.2e-16 1 0 0 
1 -2 -3.9999999999999956 20 0 -2.2e-16 -1 1 0 0 0 -1 2.2e-16 
1 0 -4 4.0000000000000009 0 -2.2e-16 1 0 -1 -2.2e-16 1 0 0 
1 43.000000000000007 -4.0000000000000044 -20 0 2.2e-16 1 -1 0 0 0 -1 2.2e-16 
2 24.000000000000124 -1.1645999999999999e-13 20 0 0 1 -1 -0 0 0 -1 0 3.9999999999998819
Triangulations 0

TShapes 213
Ve
1.00000014e-07
-2 6.00000000000003 -45
0 0

0101101
*
Ve
1e-07
-5 9.00000000000003 -42
0 0

0101101
*
Ed
 1e-07 1 1 0
1  1 0 -16.1658075373095 -10.9696551146029
2  1 1 0 -16.1658075373095 -10.9696551146029
2  2 2 0 -16.1658075373095 -10.9696551146029
0

0101000
+213 5 -212 5 *
Ve
1.00000014e-07
-2 5.99999999999997 45
0 0

0101101
*
Ed
 1.00000014e-07 1 1 0
1  2 0 1e-15 90
2  3 1 0 1e-15 90
2  4 3 6 1e-15 90
0

0101000
+213 5 -210 5 *
Ve
1e-07
-4.99999999999999 8.99999999999997 42
0 0

0101101
*
Ed
 1e-07 1 1 0
1  3 0 3 87
2  5 1 0 3 87
2  6 4 11 3 87
0

0101000
+212 5 -208 5 *
Ed
 1e-07 1 1 0
1  4 0 -27.7128129211021 -22.5166604983954
2  7 1 0 -27.7128129211021 -22.5166604983954
2  8 5 0 -27.7128129211021 -22.5166604983954
0

0101000
+210 5 -208 5 *
Wi

0101100
-211 0 +209 0 -207 0 +206 0 *
Fa
0  1e-07 1 0

0101000
+205 0 *
Ve
1e-07
-52 5.99999999999997 45
0 0

0101101
*
Ed
 1e-07 1 1 0
1  5 0 -0 50
2  9 5 0 -0 50
2  10 6 12 -0 50
0

0101000
+210 5 -203 5 *
Ve
1e-07
-52 8.99999999999997 42
0 0

0101101
*
Ed
 1e-07 1 1 0
1  6 0 2.99999999999999 50
2  11 5 0 2.99999999999999 50
2  12 4 11 2.99999999999999 50
0

0101000
+208 5 -201 5 *
Ed
 1e-07 1 1 0
1  7 0 -2.12132034355964 2.12132034355964
2  13 5 0 -2.12132034355964 2.12132034355964
2  14 7 0 -2.12132034355964 2.12132034355964
4 G1 5 0 7 0
0

0101000
+203 5 -201 5 *
Wi

0101100
-206 0 +202 0 -200 0 +199 0 *
Fa
0  1e-07 5 0

0101000
+198 0 *
Ve
1e-07
-52 -6.00000000000001 45
0 0

0101101
*
Ve
1e-07
-52 -4 45
0 0

0101101
*
Ed
 1e-07 1 1 0
1  8 0 1e-14 2.00000000000001
2  15 8 9 1e-14 2.00000000000001
2  16 9 0 1e-14 2.00000000000001
4 G1 8 9 9 0
0

0101000
-196 15 +195 15 *
Ve
1.00000014e-07
-2 -6.00000000000001 45
0 0

0101101
*
Ed
 1e-07 1 1 0
1  9 0 -0 50
2  17 8 12 -0 50
2  18 10 0 -0 50
0

0101000
+193 16 -196 16 *
Ve
1.00000014e-07
-2 -4 45
0 0

0101101
*
Ed
 1e-07 1 1 0
1  10 0 0 50
2  19 8 20 0 50
2  20 11 21 0 50
0

0101000
-195 22 +191 22 *
Ed
 1.00000014e-07 1 1 0
1  11 0 0 2.00000000000001
2  21 8 0 0 2.00000000000001
2  22 3 23 0 2.00000000000001
0

0101000
-193 24 +191 24 *
Wi

0101100
-194 10 +192 0 -190 19 +189 12 *
Fa
0  1e-07 8 0

0101000
+188 14 *
Ve
1e-07
-57 -6.00000000000001 40
0 0

0101101
*
Ed
 1e-07 1 1 0
1  12 0 0 1.5707963267949
2  23 9 10 0 1.5707963267949
2  24 12 0 0 1.5707963267949
0

0101000
+196 16 -186 16 *
Ve
1e-07
-57 -4 40
0 0

0101101
*
Ed
 1e-07 1 1 0
1  13 0 3.14159265358979 4.71238898038469
2  25 9 0 3.14159265358979 4.71238898038469
2  26 11 27 3.14159265358979 4.71238898038469
0

0101000
+195 15 -184 15 *
Ed
 1e-07 1 1 0
1  14 0 9e-15 2.00000000000001
2  27 9 0 9e-15 2.00000000000001
2  28 13 9 9e-15 2.00000000000001
4 G1 9 0 13 9
0

0101000
-186 15 +184 15 *
Wi

0101100
-194 10 -185 0 +183 10 +182 10 *
Fa
0  1e-07 9 0

0101000
+181 26 *
Ve
1e-07
-4.99999999999999 -9.00000000000001 42
0 0

0101101
*
Ed
 1e-07 1 1 0
1  15 0 -27.7128129211021 -22.5166604983954
2  29 10 0 -27.7128129211021 -22.5166604983954
2  30 14 0 -27.7128129211021 -22.5166604983954
0

0101000
+193 16 -179 16 *
Ve
1e-07
-52 -9.00000000000001 42
0 0

0101101
*
Ed
 1e-07 1 1 0
1  16 0 2.99999999999999 50
2  31 10 0 2.99999999999999 50
2  32 15 11 2.99999999999999 50
0

0101000
+179 16 -177 16 *
Ed
 1e-07 1 1 0
1  17 0 -2.12132034355964 2.12132034355964
2  33 10 0 -2.12132034355964 2.12132034355964
2  34 12 0 -2.12132034355964 2.12132034355964
4 G1 10 0 12 0
0

0101000
+196 16 -177 16 *
Wi

0101100
-178 0 +192 0 -176 0 +175 0 *
Fa
0  1e-07 10 0

0101000
+174 0 *
Ve
1.00000032e-07
-2 -4.00000000000001 31.5
0 0

0101101
*
Ed
 1.00000014e-07 1 1 0
1  18 0 76.5 90
2  35 11 21 76.5 90
2  36 3 30 76.5 90
0

0101000
+172 22 -191 22 *
Ve
1e-07
-57 -4 -40
0 0

0101101
*
Ed
 1e-07 1 1 0
1  19 0 5 85
2  37 11 21 5 85
2  38 13 20 5 85
0

0101000
+184 22 -170 22 *
Ve
1.00000031e-07
-43 -4.00000000000001 31.5
0 0

0101101
*
Ed
 1.00000028e-07 1 1 0
1  20 0 45 86
2  39 11 44 45 86
2  40 16 45 45 86
0

0101000
+172 46 -168 46 *
Ve
1e-07
-52 -4 -45
0 0

0101101
*
Ed
 1e-07 1 1 0
1  21 0 4.71238898038469 6.28318530717959
2  41 11 27 4.71238898038469 6.28318530717959
2  42 17 0 4.71238898038469 6.28318530717959
0

0101000
+170 15 -166 15 *
Ve
1.00000031e-07
-43 -3.99999999999999 -31.5
0 0

0101101
*
Ed
 1.00000024e-07 1 1 0
1  22 0 0 63
2  43 11 44 0 63
2  44 18 45 0 63
0

0101000
+168 46 -164 46 *
Ve
1.00000014e-07
-2 -4 -45
0 0

0101101
*
Ed
 1e-07 1 1 0
1  23 0 5 55
2  45 11 21 5 55
2  46 19 20 5 55
0

0101000
+166 22 -162 22 *
Ve
1.00000032e-07
-2 -3.99999999999999 -31.5
0 0

0101101
*
Ed
 1.00000028e-07 1 1 0
1  24 0 0 41
2  47 11 44 0 41
2  48 20 45 0 41
0

0101000
+164 46 -160 46 *
Ed
 1.00000014e-07 1 1 0
1  25 0 0 13.5
2  49 11 21 0 13.5
2  50 3 30 0 13.5
0

0101000
+162 22 -160 22 *
Wi

0101100
-190 29 -183 25 -171 29 -169 29 +167 43 -165 25 +163 43 -161 29 +159 43 -158 29 
*
Fa
0  1e-07 11 28

0101000
+157 0 *
Ve
1e-07
-54 -9.00000000000001 40
0 0

0101101
*
Ed
 1e-07 1 1 0
1  26 0 0 1.5707963267949
2  51 12 0 0 1.5707963267949
2  52 15 11 0 1.5707963267949
0

0101000
+177 16 -155 16 *
Ed
 1e-07 1 1 0
1  27 0 0 4.24264068711928
2  53 12 0 0 4.24264068711928
2  54 21 0 0 4.24264068711928
4 G1 12 0 21 0
0

0101000
+186 16 -155 16 *
Wi

0101100
-175 0 +185 0 -154 0 +153 0 *
Fa
0  1e-07 12 0

0101000
+152 0 *
Ve
1e-07
-57 -6 -40
0 0

0101101
*
Ed
 1e-07 1 1 0
1  28 0 0 80
2  55 13 12 0 80
2  56 21 0 0 80
0

0101000
+186 16 -150 16 *
Ed
 1e-07 1 1 0
1  29 0 -9e-15 2.00000000000001
2  57 13 9 -9e-15 2.00000000000001
2  58 17 0 -9e-15 2.00000000000001
4 G1 13 9 17 0
0

0101000
-150 15 +170 15 *
Wi

0101100
+182 10 +149 0 -169 19 -148 10 *
Fa
0  1e-07 13 0

0101000
+147 14 *
Ve
1.00000014e-07
-2 -5.99999999999999 -45
0 0

0101101
*
Ve
1e-07
-5 -8.99999999999999 -42
0 0

0101101
*
Ed
 1e-07 1 1 0
1  30 0 -16.1658075373095 -10.9696551146029
2  59 14 0 -16.1658075373095 -10.9696551146029
2  60 22 0 -16.1658075373095 -10.9696551146029
0

0101000
+145 16 -144 16 *
Ed
 1.00000014e-07 1 1 0
1  31 0 1e-15 90
2  61 14 0 1e-15 90
2  62 3 47 1e-15 90
0

0101000
+145 16 -193 16 *
Ed
 1e-07 1 1 0
1  32 0 3 87
2  63 14 0 3 87
2  64 15 11 3 87
0

0101000
+144 16 -179 16 *
Wi

0101100
-143 0 +142 0 -141 0 +178 0 *
Fa
0  1e-07 14 0

0101000
+140 0 *
Ve
1e-07
-52 -8.99999999999999 -42
0 0

0101101
*
Ed
 1e-07 1 1 0
1  33 0 0 47
2  65 15 11 0 47
2  66 22 0 0 47
0

0101000
+138 16 -144 16 *
Ve
1e-07
-54 -9 -40
0 0

0101101
*
Ed
 1e-07 1 1 0
1  34 0 0 80
2  67 15 11 0 80
2  68 21 0 0 80
0

0101000
+155 16 -136 16 *
Ed
 1e-07 1 1 0
1  35 0 0 1.5707963267949
2  69 15 11 0 1.5707963267949
2  70 23 0 0 1.5707963267949
0

0101000
+136 16 -138 16 *
Wi

0101100
-176 0 -141 0 -154 0 -137 0 -135 0 -134 0 *
Fa
0  1e-07 15 0

0101000
+133 49 *
Ve
1.00000039e-07
-2 3.99999999999999 31.5
0 0

0101101
*
Ve
1.00000038e-07
-43 3.99999999999998 31.5
0 0

0101101
*
Ed
 1.00000036e-07 1 1 0
1  36 0 45 86
2  71 16 52 45 86
2  72 24 53 45 86
0

0101000
+131 54 -130 54 *
Ed
 1.00000004e-07 1 1 0
1  37 0 0 8
2  73 16 0 0 8
2  74 18 0 0 8
0

0101000
+130 55 -168 55 *
Ed
 1.00000014e-07 1 1 0
1  38 0 0 8
2  75 16 57 0 8
2  76 3 58 0 8
0

0101000
+172 59 -131 59 *
Wi

0101100
-129 51 -128 50 +167 43 -127 56 *
Fa
0  1e-07 16 50

0101000
+126 0 *
Ve
1e-07
-52 -5.99999999999999 -45
0 0

0101101
*
Ed
 1e-07 1 1 0
1  39 0 0 1.5707963267949
2  77 17 10 0 1.5707963267949
2  78 23 0 0 1.5707963267949
0

0101000
+150 16 -124 16 *
Ed
 1e-07 1 1 0
1  40 0 -1e-14 1.99999999999999
2  79 17 0 -1e-14 1.99999999999999
2  80 19 9 -1e-14 1.99999999999999
4 G1 17 0 19 9
0

0101000
-124 15 +166 15 *
Wi

0101100
-148 10 -123 0 +165 10 +122 10 *
Fa
0  1e-07 17 0

0101000
+121 26 *
Ve
1.00000038e-07
-43 4.00000000000002 -31.5
0 0

0101101
*
Ed
 1.00000004e-07 1 1 0
1  41 0 0 8
2  81 18 0 0 8
2  82 20 0 0 8
0

0101000
+119 55 -164 55 *
Ed
 1.0000003e-07 1 1 0
1  42 0 0 63
2  83 18 52 0 63
2  84 24 53 0 63
0

0101000
+130 54 -119 54 *
Wi

0101100
+128 50 -118 50 -117 51 +163 43 *
Fa
0  1e-07 18 50

0101000
+116 0 *
Ed
 1e-07 1 1 0
1  43 0 0 50
2  85 19 12 0 50
2  86 22 0 0 50
0

0101000
+124 16 -145 16 *
Ed
 1.00000014e-07 1 1 0
1  44 0 0 1.99999999999999
2  87 19 0 0 1.99999999999999
2  88 3 23 0 1.99999999999999
0

0101000
-145 24 +162 24 *
Wi

0101100
+122 10 +114 0 -161 19 -113 12 *
Fa
0  1e-07 19 0

0101000
+112 14 *
Ve
1.00000039e-07
-2 4.00000000000001 -31.5
0 0

0101101
*
Ed
 1.00000036e-07 1 1 0
1  45 0 0 41
2  89 20 52 0 41
2  90 24 53 0 41
0

0101000
+119 54 -110 54 *
Ed
 1.00000014e-07 1 1 0
1  46 0 0 8
2  91 20 57 0 8
2  92 3 58 0 8
0

0101000
+160 59 -110 59 *
Wi

0101100
-109 51 +108 56 +159 43 +118 50 *
Fa
0  1e-07 20 50

0101000
+107 0 *
Ed
 1e-07 1 1 0
1  47 0 -2.12132034355965 2.12132034355965
2  93 21 0 -2.12132034355965 2.12132034355965
2  94 23 0 -2.12132034355965 2.12132034355965
4 G1 21 0 23 0
0

0101000
+150 16 -136 16 *
Wi

0101100
-153 0 +149 0 -135 0 +105 0 *
Fa
0  1e-07 21 0

0101000
+104 0 *
Ed
 1e-07 1 1 0
1  48 0 0 4.24264068711928
2  95 22 0 0 4.24264068711928
2  96 23 0 0 4.24264068711928
4 G1 22 0 23 0
0

0101000
+124 16 -138 16 *
Wi

0101100
-102 0 +114 0 -137 0 +143 0 *
Fa
0  1e-07 22 0

0101000
+101 0 *
Wi

0101100
-105 0 +123 0 -134 0 +102 0 *
Fa
0  1e-07 23 0

0101000
+99 0 *
Ve
1e-07
-52 3.99999999999996 45
0 0

0101101
*
Ve
1.00000014e-07
-2 3.99999999999996 45
0 0

0101101
*
Ed
 1e-07 1 1 0
1  49 0 0 50
2  97 24 21 0 50
2  98 6 20 0 50
0

0101000
-97 62 +96 62 *
Ve
1e-07
-57 3.99999999999996 40
0 0

0101101
*
Ed
 1e-07 1 1 0
1  50 0 3.14159265358979 4.71238898038469
2  99 24 27 3.14159265358979 4.71238898038469
2  100 25 0 3.14159265358979 4.71238898038469
0

0101000
+97 64 -94 64 *
Ed
 1.00000014e-07 1 1 0
1  51 0 76.5 90
2  101 24 21 76.5 90
2  102 3 65 76.5 90
0

0101000
+131 62 -96 62 *
Ve
1e-07
-57 4.00000000000004 -40
0 0

0101101
*
Ed
 1e-07 1 1 0
1  52 0 5 85
2  103 24 21 5 85
2  104 26 20 5 85
0

0101000
+94 62 -91 62 *
Ve
1e-07
-52 4.00000000000004 -45
0 0

0101101
*
Ed
 1e-07 1 1 0
1  53 0 4.71238898038469 6.28318530717959
2  105 24 27 4.71238898038469 6.28318530717959
2  106 27 0 4.71238898038469 6.28318530717959
0

0101000
+91 64 -89 64 *
Ve
1.00000014e-07
-2 4.00000000000004 -45
0 0

0101101
*
Ed
 1e-07 1 1 0
1  54 0 5 55
2  107 24 21 5 55
2  108 28 20 5 55
0

0101000
+89 62 -87 62 *
Ed
 1.00000014e-07 1 1 0
1  55 0 0 13.5
2  109 24 21 0 13.5
2  110 3 65 0 13.5
0

0101000
+87 62 -110 62 *
Wi

0101100
-95 61 -93 63 -92 61 -90 61 +129 51 -88 63 +117 51 -86 61 +109 51 -85 61 
*
Fa
0  1e-07 24 60

0101000
+84 0 *
Ed
 1e-07 1 1 0
1  56 0 1e-14 2.00000000000001
2  111 6 9 1e-14 2.00000000000001
2  112 25 0 1e-14 2.00000000000001
4 G1 6 9 25 0
0

0101000
-203 64 +97 64 *
Ed
 1.00000014e-07 1 1 0
1  57 0 0 2.00000000000001
2  113 6 0 0 2.00000000000001
2  114 3 67 0 2.00000000000001
0

0101000
-210 68 +96 68 *
Wi

0101100
-82 10 +202 0 -95 19 +81 12 *
Fa
0  1e-07 6 0

0101000
+80 14 *
Ve
1e-07
-57 5.99999999999997 40
0 0

0101101
*
Ed
 1e-07 1 1 0
1  58 0 0 1.5707963267949
2  115 25 10 0 1.5707963267949
2  116 7 0 0 1.5707963267949
0

0101000
+203 5 -78 5 *
Ed
 1e-07 1 1 0
1  59 0 9e-15 2.00000000000001
2  117 25 0 9e-15 2.00000000000001
2  118 26 9 9e-15 2.00000000000001
4 G1 25 0 26 9
0

0101000
-78 64 +94 64 *
Wi

0101100
-82 10 -77 0 +93 10 +76 10 *
Fa
0  1e-07 25 0

0101000
+75 26 *
Ve
1e-07
-57 6.00000000000003 -40
0 0

0101101
*
Ed
 1e-07 1 1 0
1  60 0 0 80
2  119 26 12 0 80
2  120 29 0 0 80
0

0101000
+78 5 -73 5 *
Ed
 1e-07 1 1 0
1  61 0 -9e-15 2.00000000000001
2  121 26 9 -9e-15 2.00000000000001
2  122 27 0 -9e-15 2.00000000000001
4 G1 26 9 27 0
0

0101000
-73 64 +91 64 *
Wi

0101100
+76 10 +72 0 -90 19 -71 10 *
Fa
0  1e-07 26 0

0101000
+70 14 *
Ve
1e-07
-52 6.00000000000003 -45
0 0

0101101
*
Ed
 1e-07 1 1 0
1  62 0 0 1.5707963267949
2  123 27 10 0 1.5707963267949
2  124 30 0 0 1.5707963267949
0

0101000
+73 5 -68 5 *
Ed
 1e-07 1 1 0
1  63 0 -1e-14 1.99999999999999
2  125 27 0 -1e-14 1.99999999999999
2  126 28 9 -1e-14 1.99999999999999
4 G1 27 0 28 9
0

0101000
-68 64 +89 64 *
Wi

0101100
-71 10 -67 0 +88 10 +66 10 *
Fa
0  1e-07 27 0

0101000
+65 26 *
Ed
 1e-07 1 1 0
1  64 0 0 50
2  127 28 12 0 50
2  128 2 0 0 50
0

0101000
+68 5 -213 5 *
Ed
 1.00000014e-07 1 1 0
1  65 0 0 1.99999999999999
2  129 28 0 0 1.99999999999999
2  130 3 67 0 1.99999999999999
0

0101000
-213 68 +87 68 *
Wi

0101100
+66 10 +63 0 -86 19 -62 12 *
Fa
0  1e-07 28 0

0101000
+61 14 *
Ve
1e-07
-54 8.99999999999997 40
0 0

0101101
*
Ed
 1e-07 1 1 0
1  66 0 0 1.5707963267949
2  131 7 0 0 1.5707963267949
2  132 4 11 0 1.5707963267949
0

0101000
+201 5 -59 5 *
Ed
 1e-07 1 1 0
1  67 0 0 4.24264068711928
2  133 7 0 0 4.24264068711928
2  134 29 0 0 4.24264068711928
4 G1 7 0 29 0
0

0101000
+78 5 -59 5 *
Wi

0101100
-199 0 +77 0 -58 0 +57 0 *
Fa
0  1e-07 7 0

0101000
+56 0 *
Ve
1e-07
-54 9.00000000000004 -40
0 0

0101101
*
Ed
 1e-07 1 1 0
1  68 0 0 80
2  135 29 0 0 80
2  136 4 11 0 80
0

0101000
+59 5 -54 5 *
Ed
 1e-07 1 1 0
1  69 0 -2.12132034355965 2.12132034355965
2  137 29 0 -2.12132034355965 2.12132034355965
2  138 30 0 -2.12132034355965 2.12132034355965
4 G1 29 0 30 0
0

0101000
+73 5 -54 5 *
Wi

0101100
-57 0 +72 0 -53 0 +52 0 *
Fa
0  1e-07 29 0

0101000
+51 0 *
Ve
1e-07
-52 9.00000000000003 -42
0 0

0101101
*
Ed
 1e-07 1 1 0
1  70 0 0 1.5707963267949
2  139 30 0 0 1.5707963267949
2  140 4 11 0 1.5707963267949
0

0101000
+54 5 -49 5 *
Ed
 1e-07 1 1 0
1  71 0 0 4.24264068711928
2  141 30 0 0 4.24264068711928
2  142 2 0 0 4.24264068711928
4 G1 30 0 2 0
0

0101000
+68 5 -49 5 *
Wi

0101100
-52 0 +67 0 -48 0 +47 0 *
Fa
0  1e-07 30 0

0101000
+46 0 *
Ed
 1e-07 1 1 0
1  72 0 0 47
2  143 2 0 0 47
2  144 4 11 0 47
0

0101000
+49 5 -212 5 *
Wi

0101100
-47 0 +63 0 -44 0 +211 0 *
Fa
0  1e-07 2 0

0101000
+43 0 *
Wi

0101100
-200 0 -207 0 -58 0 -44 0 -53 0 -48 0 *
Fa
0  1e-07 4 0

0101000
+41 49 *
Wi

0101100
+189 13 -142 2 -113 13 +158 29 +108 56 -85 61 +62 66 +209 4 -81 66 -92 61 
-127 56 +171 29 *
Ve
1.00000023e-07
-2 -3.99999999999999 -20
0 0

0101101
*
Ve
1.00000023e-07
-2 -4.00000000000001 20
0 0

0101101
*
Ed
 1.00000012e-07 1 1 0
1  73 0 25 65
2  145 3 30 25 65
2  146 31 70 25 65
0

0101000
+38 22 -37 22 *
Ve
1.00000023e-07
-2 3.99999999999999 20
0 0

0101101
*
Ed
 1.00000014e-07 1 1 0
1  74 0 0 8
2  147 3 58 0 8
2  148 32 0 0 8
0

0101000
+37 59 -35 59 *
Ve
1.00000023e-07
-2 4.00000000000001 -20
0 0

0101101
*
Ed
 1.00000012e-07 1 1 0
1  75 0 25 65
2  149 3 65 25 65
2  150 33 71 25 65
0

0101000
+33 62 -35 62 *
Ed
 1.00000014e-07 1 1 0
1  76 0 0 8
2  151 3 58 0 8
2  152 34 0 0 8
0

0101000
+38 59 -33 59 *
Wi

0101100
+36 29 +34 56 -32 61 -31 56 *
Fa
0  1.00000014e-07 3 0

0101000
+39 0 +30 0 *
Ve
1.0000055e-07
24.0000000000001 -3.99999999999984 -20
0 0

0101101
*
Ed
 1.00000023e-07 1 1 0
1  77 0 18.9999999999999 45
2  153 31 76 18.9999999999999 45
2  154 34 77 18.9999999999999 45
0

0101000
+28 78 -38 78 *
Ve
1.0000055e-07
24.0000000000001 -3.99999999999985 20
0 0

0101101
*
Ed
 1.00000475e-07 1 1 0
1  78 0 0 40
2  155 31 80 0 40
2  156 35 0 0 40
0

0101000
+26 81 -28 81 *
Ed
 1.00000023e-07 1 1 0
1  79 0 0 26.0000000000001
2  157 31 76 0 26.0000000000001
2  158 32 77 0 26.0000000000001
0

0101000
+37 78 -26 78 *
Wi

0101100
+27 75 +25 79 +24 75 +36 29 *
Fa
0  1e-07 31 72

0101000
+23 0 *
Ve
2.23020271e-07
28 -9e-15 20
0 0

0101101
*
Ed
 1.00000226e-07 1 1 0
1  80 0 1.5707963267949 3.14159265358979
2  159 32 85 1.5707963267949 3.14159265358979
2  160 35 86 1.5707963267949 3.14159265358979
0

0101000
+26 87 -21 87 *
Ve
1.00000243e-07
24.0000000000001 3.99999999999976 20
0 0

0101101
*
Ed
 1.00000222e-07 1 1 0
1  81 0 3.14159265358979 4.71238898038469
2  161 32 85 3.14159265358979 4.71238898038469
2  162 35 86 3.14159265358979 4.71238898038469
0

0101000
+21 87 -19 87 *
Ed
 1.00000023e-07 1 1 0
1  82 0 0 26.0000000000001
2  163 32 90 0 26.0000000000001
2  164 33 91 0 26.0000000000001
0

0101000
+35 92 -19 92 *
Wi

0101100
-24 75 -20 84 -18 84 +17 89 +34 56 *
Fa
0  1e-07 32 56

0101000
+16 0 *
Ve
1.00000244e-07
24.0000000000001 3.99999999999978 -20
0 0

0101101
*
Ed
 1.00000023e-07 1 1 0
1  83 0 18.9999999999999 45
2  165 34 90 18.9999999999999 45
2  166 33 91 18.9999999999999 45
0

0101000
+14 92 -33 92 *
Ve
2.2302028e-07
28 9e-15 -20
0 0

0101101
*
Ed
 1.0000024e-07 1 1 0
1  84 0 3.14159265358979 4.71238898038469
2  167 34 95 3.14159265358979 4.71238898038469
2  168 35 96 3.14159265358979 4.71238898038469
0

0101000
+12 97 -14 97 *
Ed
 1.00000243e-07 1 1 0
1  85 0 1.5707963267949 3.14159265358979
2  169 34 95 1.5707963267949 3.14159265358979
2  170 35 96 1.5707963267949 3.14159265358979
0

0101000
+28 97 -12 97 *
Wi

0101100
-27 75 -31 56 +13 89 +11 94 +10 94 *
Fa
0  1e-07 34 56

0101000
+9 0 *
Ed
 1.00000242e-07 1 1 0
1  86 0 0 40
2  171 35 0 0 40
2  172 33 98 0 40
0

0101000
+19 81 -14 81 *
Wi

0101100
+10 94 +11 94 -7 79 -18 84 -20 84 +25 79 *
Fa
0  1e-07 35 79

0101000
+6 0 *
Wi

0101100
+13 89 +7 79 +17 89 +32 61 *
Fa
0  1e-07 33 99

0101000
+4 0 *
Sh

0101100
-204 4 -197 4 -187 13 +180 25 +173 2 +156 0 +151 2 -146 13 +139 2 -132 48 
-125 0 +120 25 -115 0 -111 13 -106 0 +103 2 +100 2 +98 2 -83 0 +79 66 
-74 63 +69 66 -64 63 +60 66 -55 4 -50 4 -45 4 -42 4 +40 69 +29 0 
-22 0 -15 0 -8 0 +5 0 +3 0 *
So

1100000
+2 0 *

+1 1 