DBRep_DrawableShape

CASCADE Topology V1, (c) Matra-Datavision
Locations 54
1
              1               0               0               0 
              0               1               0               0 
              0               0               1               0 
1
              1               0               0               0 
              0               1               0               0 
              0               0               1               0 
1
              1               0               0               0 
              0               1               0               0 
              0               0               1               0 
1
              1               0               0               0 
              0               1               0               0 
              0               0               1               0 
1
              1               0               0               0 
              0               1               0               0 
              0               0               1               0 
1
              1               0               0               0 
              0               1               0               0 
              0               0               1               0 
2  2 1 3 -1 4 1 5 -1 6 1 0
2  1 -1 6 -1 5 1 4 -1 3 1 2 -1 0
1
              1               0               0               0 
              0               1               0               0 
              0               0               1               0 
1
              1               0               0               0 
              0               0              -1               0 
              0               1               0               0 
1
              1               0               0               0 
              0               1               0               0 
              0               0               1               0 
2  9 1 10 1 11 -1 0
2  11 1 10 -1 9 -1 0
2  10 -1 9 -1 0
2  1 -1 6 -1 5 1 4 -1 3 1 2 -1 11 1 10 -1 9 -1 0
1
              1               0               0               0 
              0               1               0              -5 
              0               0               1           1e-15 
2  9 1 10 1 11 -1 16 1 0
2  16 -1 11 1 10 -1 9 -1 0
2  1 -1 6 -1 5 1 4 -1 3 1 2 -1 16 -1 11 1 10 -1 9 -1 0
2  4 1 5 -1 6 1 0
2  11 -1 2 1 3 -1 0
2  9 1 10 1 11 -1 2 1 3 -1 0
2  6 -1 5 1 4 -1 0
2  11 -1 2 1 3 -1 4 1 5 -1 6 1 0
2  1 -1 0
2  11 -1 16 1 2 1 3 -1 4 1 5 -1 0
2  9 1 10 1 11 -1 16 1 2 1 3 -1 4 1 5 -1 0
1
              1               0               0               0 
              0               1               0               0 
              0               0               1               0 
1
              1               0               0               0 
              0               0              -1              -5 
              0               1               0               0 
2  28 1 29 1 5 -1 0
2  11 -1 16 1 2 1 3 -1 4 1 29 -1 28 -1 0
2  5 1 29 -1 28 -1 0
2  1 -1 6 -1 5 1 29 -1 28 -1 0
2  1 -1 6 -1 0
1
              1               0               0               0 
              0               1               0               5 
              0               0               1          -1e-15 
2  28 1 29 1 5 -1 35 1 0
2  35 -1 5 1 29 -1 28 -1 0
2  29 -1 28 -1 0
2  1 -1 6 -1 35 -1 5 1 29 -1 28 -1 0
2  5 -1 35 1 6 1 0
2  28 1 29 1 0
1
              1               0               0               0 
              0               1               0               0 
              0               0               1               0 
2  11 -1 2 1 3 -1 4 1 5 -1 6 1 42 1 0
2  4 1 5 -1 6 1 42 1 0
2  1 -1 42 -1 6 -1 5 1 4 -1 3 1 2 -1 11 1 10 -1 9 -1 0
2  42 -1 6 -1 5 1 4 -1 0
2  2 1 3 -1 4 1 5 -1 6 1 42 1 0
2  1 -1 42 -1 6 -1 5 1 4 -1 3 1 2 -1 0
2  1 -1 42 -1 6 -1 5 1 4 -1 3 1 2 -1 16 -1 11 1 10 -1 9 -1 0
2  6 1 42 1 0
2  1 -1 42 -1 6 -1 5 1 29 -1 28 -1 0
2  1 -1 42 -1 6 -1 0
2  1 -1 42 -1 6 -1 35 -1 5 1 29 -1 28 -1 0
2  5 -1 35 1 6 1 42 1 0
Curve2ds 30
1 0 0 0 -1 
1 6.2831853071795862 0 0 -1 
1 0 0 1 0 
2 1.3299999999999999e-15 3.3699999999999999e-15 0 1 1 -0 32.5
1 0 -5 1 0 
2 1.3299999999999999e-15 3.3699999999999999e-15 0 1 1 -0 32.5
2 1.3299999999999999e-15 3.3699999999999999e-15 0 -1 1 0 27.5
1 0 0 1 -0 
2 3.2999999999999984e-16 3.3699999999999999e-15 0 1 1 -0 25
1 0 0 1 0 
1 0 0 0 -1 
1 6.2831853071795862 0 0 -1 
1 0 -5 1 0 
2 1.02e-15 1.75e-15 0 1 1 -0 25
1 6.2831853071795862 0 0 1 
1 0 0 0 1 
1 0 -8 1 0 
2 1.3299999999999999e-15 3.3699999999999999e-15 0 -1 1 0 27.5
2 3.11e-15 3.3699999999999999e-15 0 1 1 -0 32.5
1 0 0 1 0 
1 0 0 0 -1 
1 6.2831853071795862 0 0 -1 
1 0 -5 1 0 
2 5.3300000000000002e-15 3.3699999999999999e-15 0 1 1 -0 32.5
2 4.3300000000000005e-15 3.3699999999999999e-15 0 1 1 -0 25
1 0 0 1 0 
1 0 0 0 -1 
1 6.2831853071795862 0 0 -1 
1 0 -5 1 0 
2 2.8000000000000001e-15 1.75e-15 0 1 1 -0 25
Curves 15
1 32.5 0 0 0 -1 2.2e-16 
2 0 0 0 0 0 1 1 0 -0 -0 1 0 32.5
2 0 0 0 0 0 1 1 0 -0 -0 1 0 32.5
2 0 -0 0 0 1 -2.2e-16 -1 0 0 0 2.2e-16 1 27.5
2 0 0 0 0 0 1 1 0 -0 -0 1 0 25
1 25 -5 0 0 1 -2.2e-16 
2 0 0 0 0 0 1 1 0 -0 -0 1 0 25
7 0 0  1 2 2  -27.5 8 -8.5099999999999998e-15  -27.5 -0 -6.7399999999999999e-15 
 -8 2 0 2
2 0 8 0 0 1 2.2e-16 -1 0 0 0 -2.2e-16 1 27.5
2 0 1.7800000000000001e-15 -8 0 -4.4e-16 1 1 0 0 -0 1 4.4e-16 32.5
1 32.5 8 0 0 1 2.2e-16 
2 0 4.0000000000000003e-15 -18 0 -4.4e-16 1 1 0 0 -0 1 4.4e-16 32.5
2 0 4.0000000000000003e-15 -18 0 -4.4e-16 1 1 0 0 -0 1 4.4e-16 25
1 25 13 0 -0 -1 -2.2e-16 
2 0 1.7800000000000001e-15 -8 0 -4.4e-16 1 1 0 0 -0 1 4.4e-16 25
Polygon3D 0
PolygonOnTriangulations 0
Surfaces 11
2 0 0 0 0 1 -2.2e-16 1 0 0 -0 2.2e-16 1 32.5
1 -3.3699999999999999e-15 -0 -1.3299999999999999e-15 0 1 0 0 -0 1 1 0 -0 
1 -3.3699999999999999e-15 -0 -1.3299999999999999e-15 0 1 0 0 -0 1 1 0 -0 
10 0 6.2831853071795862 -8 0
2 0 -0 0 0 -1 2.2e-16 -1 0 0 0 2.2e-16 1 27.5
2 0 -5 0 0 -1 2.2e-16 1 0 0 -0 2.2e-16 1 25
1 -1.75e-15 -4.9999999999999991 -1.02e-15 0 1 0 0 -0 1 1 0 -0 
1 -3.3699999999999999e-15 8 -1.3299999999999999e-15 -0 -1 -0 0 0 1 1 -0 -0 
2 0 8 0 -0 -1 -2.2e-16 1 -0 0 -0 -2.2e-16 1 32.5
1 -3.3699999999999999e-15 18 -1.3299999999999999e-15 -0 -1 -0 0 0 1 1 -0 -0 
2 0 13 0 0 1 2.2e-16 1 0 -0 0 -2.2e-16 1 25
1 -1.75e-15 2.9999999999999991 -1.02e-15 -0 -1 -0 0 0 1 1 -0 -0 
Triangulations 0

TShapes 53
Ve
1e-07
32.5 0 0
0 0

0101101
*
Ve
1e-07
32.5 -5 1e-15
0 0

0101101
*
Ed
 1e-07 1 1 0
1  1 0 0 5
3  1 2CN 1 0 0 5
0

0101000
+53 8 -52 8 *
Ed
 1e-07 1 1 0
1  2 0 0 6.28318530717959
2  3 1 13 0 6.28318530717959
2  4 2 14 0 6.28318530717959
0

0101100
+53 15 -53 15 *
Ed
 1e-07 1 1 0
1  3 0 0 6.28318530717959
2  5 1 18 0 6.28318530717959
2  6 3 14 0 6.28318530717959
0

0101100
+52 19 -52 19 *
Wi

0101100
+51 0 -51 0 -50 12 +49 17 *
Fa
0  1e-07 1 0

0101000
+48 0 *
Wi

0101100
-50 22 *
Ve
1e-05
-27.5 0 0
0 0

0101101
*
Ed
 1e-07 1 1 0
1  4 0 0 6.28318530717959
2  7 2 24 0 6.28318530717959
2  8 4 0 0 6.28318530717959
0

0101000
+45 25 -45 25 *
Wi

0101100
-44 23 *
Fa
0  1e-07 2 21

0101000
+46 0 +43 0 *
Wi

0101100
-49 27 *
Ve
1.00000005e-07
25 -5 0
0 0

0101101
*
Ed
 1.00000005e-07 1 1 0
1  5 0 0 6.28318530717959
2  9 3 31 0 6.28318530717959
2  10 5 32 0 6.28318530717959
0

0101000
+40 33 -40 33 *
Wi

0101100
+39 30 *
Fa
0  1e-07 3 26

0101000
+41 0 +38 0 *
Ve
1e-07
25 0 -1e-15
0 0

0101101
*
Ed
 1e-07 1 1 0
1  6 0 0 5
3  11 12CN 5 0 0 5
0

0101000
+40 34 -36 34 *
Ed
 1e-07 1 1 0
1  7 0 0 6.28318530717959
2  13 5 37 0 6.28318530717959
2  14 6 38 0 6.28318530717959
0

0101100
+36 39 -36 39 *
Wi

0101100
+35 0 -35 0 -39 30 +34 36 *
Fa
0  1e-07 5 0

0101000
+33 0 *
Wi

0101100
+34 0 *
Fa
0  1e-07 6 0

0101000
-31 41 *
Ve
1e-05
-27.5 8 0
0 0

0101101
*
Ed
 1e-05 1 1 0
1  8 0 -8 0
3  15 16C0 4 0 -8 0
0

0101000
-45 25 +29 25 *
Ed
 1e-07 1 1 0
1  9 0 0 6.28318530717959
2  17 4 0 0 6.28318530717959
2  18 7 43 0 6.28318530717959
0

0101000
+29 25 -29 25 *
Wi

0101100
-44 0 -28 0 +27 0 +28 0 *
Fa
0  1e-07 4 0

0101000
+26 0 *
Ve
1e-07
32.5 8 0
0 0

0101101
*
Ed
 1e-07 1 1 0
1  10 0 0 6.28318530717959
2  19 7 14 0 6.28318530717959
2  20 8 13 0 6.28318530717959
0

0101100
+24 45 -24 45 *
Wi

0101100
-23 22 *
Wi

0101100
-27 46 *
Fa
0  1e-07 7 21

0101000
+22 0 +21 0 *
Ve
1e-07
32.5 13 1e-15
0 0

0101101
*
Ed
 1e-07 1 1 0
1  11 0 0 5
3  21 22CN 8 0 0 5
0

0101000
+24 48 -19 48 *
Ed
 1e-07 1 1 0
1  12 0 0 6.28318530717959
2  23 8 18 0 6.28318530717959
2  24 9 14 0 6.28318530717959
0

0101100
+19 49 -19 49 *
Wi

0101100
+18 0 -18 0 -23 12 +17 17 *
Fa
0  1e-07 8 0

0101000
+16 0 *
Wi

0101100
-17 27 *
Ve
1.00000005e-07
25 13 0
0 0

0101101
*
Ed
 1.00000005e-07 1 1 0
1  13 0 0 6.28318530717959
2  25 9 31 0 6.28318530717959
2  26 10 32 0 6.28318530717959
0

0101000
+13 51 -13 51 *
Wi

0101100
+12 30 *
Fa
0  1e-07 9 26

0101000
+14 0 +11 0 *
Ve
1e-07
25 8 -1e-15
0 0

0101101
*
Ed
 1e-07 1 1 0
1  14 0 0 5
3  27 28CN 10 0 0 5
0

0101000
+13 52 -9 52 *
Ed
 1e-07 1 1 0
1  15 0 0 6.28318530717959
2  29 10 37 0 6.28318530717959
2  30 11 38 0 6.28318530717959
0

0101100
+9 53 -9 53 *
Wi

0101100
+8 0 -8 0 -12 30 +7 36 *
Fa
0  1e-07 10 0

0101000
+6 0 *
Wi

0101100
+7 0 *
Fa
0  1e-07 11 0

0101000
-4 41 *
Sh

0101100
-47 7 +42 20 -37 6 -32 6 -30 40 -25 0 -20 44 +15 47 +10 50 +5 50 
+3 54 *
So

1100000
+2 0 *

+1 1 