DBRep_DrawableShape

CASCADE Topology V1, (c) Matra-Datavision
Locations 21
1
              1               0               0               0 
              0               1               0               0 
              0               0               1               0 
1
              1               0               0               0 
              0               1               0               0 
              0               0               1               0 
1
              1               0               0               0 
              0               1               0               0 
              0               0               1               0 
2  2 1 3 1 0
1
              1               0               0               0 
              0               1               0               0 
              0               0               1               0 
1
              1               0               0               0 
              0               1               0               0 
              0               0               1               0 
2  5 1 6 -1 0
2  1 -1 3 -1 2 -1 6 1 5 -1 0
2  3 -1 2 -1 0
2  5 1 6 -1 2 1 3 1 0
2  1 -1 0
1
              1               0               0               0 
              0               1               0               0 
              0               0               1               0 
1
              1               0               0               0 
              0               1               0               0 
              0               0               1               0 
1
              1               0               0               0 
              0               1               0               0 
              0               0               1               0 
2  12 1 13 1 14 -1 0
2  14 1 13 -1 12 -1 0
2  1 -1 3 -1 2 -1 6 1 5 -1 14 1 13 -1 12 -1 0
2  5 1 6 -1 2 1 0
2  1 -1 2 -1 6 1 5 -1 0
2  2 -1 0
2  1 -1 2 -1 6 1 5 -1 14 1 13 -1 12 -1 0
Curve2ds 48
2 0 0 -1 0 0 1 11
1 0 0 1 0 
2 0 0 1 0 -0 1 7
1 0 -8 1 0 
1 0 12 1 0 
1 0 3.1415926535897931 1 0 
1 6.2831853071795862 0 0 1 
1 0 0 0 1 
1 0 4.9452571586427716 1 0 
1 0 1.8036645050529772 1 0 
1 6.2831853071795862 0 0 1 
1 0 0 0 1 
1 0 0.16703046627066745 1 0 
1 0 6.4502157734502514 1 0 
1 6.2831853071795862 -3.1000000000000001e-16 0 1 
1 0 -3.1000000000000001e-16 0 1 
1 0 4.959742299933497 1 0 
1 0 -1.3234430072460903 1 0 
1 6.2831853071795862 0 0 1 
1 0 0 0 1 
1 0 -1.5707963267948963 1 0 
1 6.2831853071795862 -6.2831853071795862 0 1 
1 0 -6.2831853071795862 0 1 
1 6.2831853071795862 0 0 1 
1 0 0 0 1 
1 0 0 1 0 
2 0 0 1 0 -0 1 7
2 0 0 -1 0 0 1 11
1 0 0 1 0 
1 0 12 1 0 
1 0 3.1415926535897931 1 0 
1 6.2831853071795862 0 0 1 
1 0 0 0 1 
1 0 4.9452571586427716 1 0 
1 0 1.8036645050529772 1 0 
1 6.2831853071795862 0 0 1 
1 0 0 0 1 
1 0 0.16703046627066745 1 0 
1 0 6.4502157734502514 1 0 
1 6.2831853071795862 -3.1000000000000001e-16 0 1 
1 0 -3.1000000000000001e-16 0 1 
1 0 4.959742299933497 1 0 
1 0 -1.3234430072460903 1 0 
1 6.2831853071795862 0 0 1 
1 0 0 0 1 
1 0 -1.5707963267948963 1 0 
1 6.2831853071795862 -6.2831853071795862 0 1 
1 0 -6.2831853071795862 0 1 
Curves 23
2 0 8 0 0 -1 0 1 0 0 -0 0 1 11
2 0 8 0 0 1 2.2e-16 -1 0 0 0 -2.2e-16 1 7
2 0 20 0 0 -1 0 1 0 0 -0 0 1 11
1 11 8 0 0 1 0 
2 0 24.865042554105202 0 0 -1 0 1 0 0 -0 0 1 17.153846153846153
2 16 20 0 0 0 -1 1 0 0 0 -1 0 5
2 0 26.075173000000099 0 0 -1 0 1 0 0 -0 0 1 18.979124220038162
2 17.5 26.32455532033676 0 0 0 -1 1 0 0 0 -1 0 1.5
2 0 27.778901060229131 0 0 -1 0 1 0 0 -0 0 1 17.867258041241982
2 17.5 26.32455532033676 0 0 0 -1 1 0 0 0 -1 0 1.5
2 0 -42.975630353058278 0 0 0 -1 1 0 0 0 -1 0 72.975630353058278
7 0 0  1 2 2  -7 8 -1.7800000000000001e-15  -7 0 0 
 -8 2 0 2
2 0 0 0 0 1 -2.2e-16 -1 0 0 0 2.2e-16 1 7
2 0 0 0 0 -1 0 1 0 0 -0 0 1 11
2 0 -12 0 0 -1 0 1 0 0 -0 0 1 11
1 11 0 0 0 -1 0 
2 0 -16.865042554105202 0 0 -1 0 1 0 0 -0 0 1 17.153846153846153
2 16 -12 0 0 0 1 1 0 -0 -0 1 0 5
2 0 -18.075173000000099 0 0 -1 0 1 0 0 -0 0 1 18.979124220038162
2 17.5 -18.32455532033676 0 0 0 1 1 0 -0 -0 1 0 1.5
2 0 -19.778901060229131 0 0 -1 0 1 0 0 -0 0 1 17.867258041241982
2 17.5 -18.32455532033676 0 0 0 1 1 0 -0 -0 1 0 1.5
2 0 50.975630353058278 0 0 0 1 1 0 -0 -0 1 0 72.975630353058278
Polygon3D 0
PolygonOnTriangulations 0
Surfaces 13
1 0 8 0 0 1 0 -1 0 0 0 -0 1 
2 0 8 0 0 1 0 1 0 0 -0 -0 1 11
10 0 6.2831853071795862 -8 0
2 0 0 0 0 -1 2.2e-16 -1 0 0 0 2.2e-16 1 7
5 0 20 0 -0 -1 -0 1 -0 0 -0 0 1 16 5
5 0 26.32455532033676 0 -0 -1 -0 1 -0 0 -0 0 1 17.5 1.5
5 0 26.32455532033676 0 -0 -1 -0 1 -0 0 -0 0 1 17.5 1.5
4 0 -42.975630353058278 0 -0 -1 -0 1 -0 0 -0 0 1 72.975630353058278
1 0 0 0 -0 -1 -0 -1 0 0 -0 -0 1 
2 0 0 0 -0 -1 -0 1 -0 0 -0 0 1 11
5 0 -12 0 0 1 0 1 0 0 -0 -0 1 16 5
5 0 -18.32455532033676 0 0 1 0 1 0 0 -0 -0 1 17.5 1.5
5 0 -18.32455532033676 0 0 1 0 1 0 0 -0 -0 1 17.5 1.5
4 0 50.975630353058278 0 0 1 0 1 0 0 -0 -0 1 72.975630353058278
Triangulations 0

TShapes 69
Ve
1e-07
11 8 0
0 0

0101101
*
Ed
 1e-07 1 1 0
1  1 0 0 6.28318530717959
2  1 1 0 0 6.28318530717959
2  2 2 0 0 6.28318530717959
0

0101000
+69 8 -69 8 *
Wi

0101100
-68 7 *
Ve
1e-05
-7 8 0
0 0

0101101
*
Ed
 1e-07 1 1 0
1  2 0 0 6.28318530717959
2  3 1 10 0 6.28318530717959
2  4 3 0 0 6.28318530717959
0

0101000
+66 11 -66 11 *
Wi

0101100
-65 9 *
Fa
0  1e-07 1 7

0101000
+67 0 +64 0 *
Ve
1e-07
11 20 0
0 0

0101101
*
Ed
 1e-07 1 1 0
1  3 0 0 6.28318530717959
2  5 2 0 0 6.28318530717959
2  6 4 0 0 6.28318530717959
4 G1 2 0 4 0
0

0101000
+62 8 -62 8 *
Ed
 1e-07 1 1 0
1  4 0 0 12
3  7 8CN 2 16 0 12
0

0101000
+69 17 -62 17 *
Wi

0101100
+68 0 -61 0 -60 15 +60 15 *
Fa
0  1e-07 2 0

0101000
+59 0 *
Ve
1.00000003e-07
17.1538461538462 24.8650425541052 0
0 0

0101101
*
Ed
 1.00000003e-07 1 1 0
1  5 0 0 6.28318530717959
2  9 4 0 0 6.28318530717959
2  10 5 0 0 6.28318530717959
4 G1 4 0 5 0
0

0101000
+57 8 -57 8 *
Ed
 1e-07 1 1 0
1  6 0 3.14159265358979 4.94525715864277
3  11 12CN 4 16 3.14159265358979 4.94525715864277
0

0101000
+62 17 -57 17 *
Wi

0101100
+61 0 -56 0 -55 15 +55 15 *
Fa
0  1e-07 4 0

0101000
+54 0 *
Ve
1.00000002e-07
18.9791242200382 26.0751730000001 0
0 0

0101101
*
Ed
 1.00000002e-07 1 1 0
1  7 0 0 6.28318530717959
2  13 5 0 0 6.28318530717959
2  14 6 0 0 6.28318530717959
4 C2 5 0 6 0
0

0101000
+52 8 -52 8 *
Ed
 1e-07 1 1 0
1  8 0 0.167030466270668 1.80366450505298
3  15 16CN 5 16 0.167030466270668 1.80366450505298
0

0101000
+52 17 -57 17 *
Wi

0101100
+51 0 -56 0 -50 15 +50 15 *
Fa
0  1e-07 5 0

0101000
+49 0 *
Ve
1.00000002e-07
17.867258041242 27.7789010602291 0
0 0

0101101
*
Ed
 1.00000002e-07 1 1 0
1  9 0 0 6.28318530717959
2  17 6 0 0 6.28318530717959
2  18 7 0 0 6.28318530717959
4 G1 6 0 7 0
0

0101000
+47 8 -47 8 *
Ed
 1e-07 1 1 0
1  10 0 4.9597422999335 6.45021577345025
3  19 20CN 6 16 4.9597422999335 6.45021577345025
0

0101000
+47 17 -52 17 *
Wi

0101100
+46 0 -51 0 -45 15 +45 15 *
Fa
0  1e-07 6 0

0101000
+44 0 *
Ve
1e-07
-1.3e-14 30 0
0 0

0101101
*
Ed
 1e-07 1 1 1
2  21 7 0 0 6.28318530717959
0

0101000
+42 8 -42 8 *
Ed
 1e-07 1 1 0
1  11 0 4.71238898038469 4.9597422999335
3  22 23CN 7 16 4.71238898038469 4.9597422999335
0

0101000
+42 17 -47 17 *
Wi

0101100
+41 0 -46 0 -40 15 +40 15 *
Fa
0  1e-07 7 0

0101000
+39 0 *
Ve
1e-05
-7 0 0
0 0

0101101
*
Ed
 1e-05 1 1 0
1  12 0 -8 0
3  24 25C0 3 0 -8 0
0

0101000
+66 11 -37 11 *
Ed
 1e-07 1 1 0
1  13 0 0 6.28318530717959
2  26 3 0 0 6.28318530717959
2  27 8 18 0 6.28318530717959
0

0101000
+37 11 -37 11 *
Wi

0101100
+65 0 +36 0 -35 0 -36 0 *
Fa
0  1e-07 3 0

0101000
+34 0 *
Ve
1e-07
11 0 0
0 0

0101101
*
Ed
 1e-07 1 1 0
1  14 0 0 6.28318530717959
2  28 8 0 0 6.28318530717959
2  29 9 0 0 6.28318530717959
0

0101000
+32 19 -32 19 *
Wi

0101100
-31 7 *
Wi

0101100
-35 20 *
Fa
0  1e-07 8 7

0101000
+30 0 +29 0 *
Ve
1e-07
11 -12 0
0 0

0101101
*
Ed
 1e-07 1 1 0
1  15 0 0 6.28318530717959
2  30 9 0 0 6.28318530717959
2  31 10 0 0 6.28318530717959
4 G1 9 0 10 0
0

0101000
+27 19 -27 19 *
Ed
 1e-07 1 1 0
1  16 0 0 12
3  32 33CN 9 16 0 12
0

0101000
+32 21 -27 21 *
Wi

0101100
+31 0 -26 0 -25 15 +25 15 *
Fa
0  1e-07 9 0

0101000
+24 0 *
Ve
1.00000003e-07
17.1538461538462 -16.8650425541052 0
0 0

0101101
*
Ed
 1.00000003e-07 1 1 0
1  17 0 0 6.28318530717959
2  34 10 0 0 6.28318530717959
2  35 11 0 0 6.28318530717959
4 G1 10 0 11 0
0

0101000
+22 19 -22 19 *
Ed
 1e-07 1 1 0
1  18 0 3.14159265358979 4.94525715864277
3  36 37CN 10 16 3.14159265358979 4.94525715864277
0

0101000
+27 21 -22 21 *
Wi

0101100
+26 0 -21 0 -20 15 +20 15 *
Fa
0  1e-07 10 0

0101000
+19 0 *
Ve
1.00000002e-07
18.9791242200382 -18.0751730000001 0
0 0

0101101
*
Ed
 1.00000002e-07 1 1 0
1  19 0 0 6.28318530717959
2  38 11 0 0 6.28318530717959
2  39 12 0 0 6.28318530717959
4 C2 11 0 12 0
0

0101000
+17 19 -17 19 *
Ed
 1e-07 1 1 0
1  20 0 0.167030466270668 1.80366450505298
3  40 41CN 11 16 0.167030466270668 1.80366450505298
0

0101000
+17 21 -22 21 *
Wi

0101100
+16 0 -21 0 -15 15 +15 15 *
Fa
0  1e-07 11 0

0101000
+14 0 *
Ve
1.00000002e-07
17.867258041242 -19.7789010602291 0
0 0

0101101
*
Ed
 1.00000002e-07 1 1 0
1  21 0 0 6.28318530717959
2  42 12 0 0 6.28318530717959
2  43 13 0 0 6.28318530717959
4 G1 12 0 13 0
0

0101000
+12 19 -12 19 *
Ed
 1e-07 1 1 0
1  22 0 4.9597422999335 6.45021577345025
3  44 45CN 12 16 4.9597422999335 6.45021577345025
0

0101000
+12 21 -17 21 *
Wi

0101100
+11 0 -16 0 -10 15 +10 15 *
Fa
0  1e-07 12 0

0101000
+9 0 *
Ve
1e-07
-1.3e-14 -22 0
0 0

0101101
*
Ed
 1e-07 1 1 1
2  46 13 0 0 6.28318530717959
0

0101000
+7 19 -7 19 *
Ed
 1e-07 1 1 0
1  23 0 4.71238898038469 4.9597422999335
3  47 48CN 13 16 4.71238898038469 4.9597422999335
0

0101000
+7 21 -12 21 *
Wi

0101100
+6 0 -11 0 -5 15 +5 15 *
Fa
0  1e-07 13 0

0101000
+4 0 *
Sh

0101000
-63 4 -58 10 -53 10 +48 10 +43 10 +38 10 -33 0 +28 2 +23 18 +18 18 
-13 18 -8 18 -3 18 *
So

1100000
+2 0 *

+1 1 