DBRep_DrawableShape

CASCADE Topology V1, (c) Matra-Datavision
Locations 42
1
              1               0               0               0 
              0               1               0               0 
              0               0               1               0 
1
              1               0               0               0 
              0               1               0               0 
              0               0               1               0 
1
              1               0               0               0 
              0               1               0               0 
              0               0               1               0 
1
              1               0               0               0 
              0               1               0               0 
              0               0               1               0 
1
              1               0               0               0 
              0               1               0               0 
              0               0               1               0 
2  2 1 3 1 4 -1 5 1 0
2  2 -1 0
2  1 -1 5 -1 4 1 3 -1 2 -1 0
2  1 -1 5 -1 4 1 3 -1 0
1
              1               0               0               0 
              0               1               0               0 
              0               0               1               0 
1
             -1               0               0               0 
              0               0               1               0 
              0               1              -0               0 
1
              1               0               0               0 
              0               1               0               0 
              0               0               1               0 
2  10 1 11 1 12 -1 2 1 0
2  12 1 11 -1 10 -1 0
2  1 -1 5 -1 4 1 3 -1 2 -1 12 1 11 -1 10 -1 0
2  3 1 4 -1 5 1 0
1
              1               0               0              -0 
              0               1               0              -5 
              0               0               1           1e-15 
2  12 -1 17 1 2 1 0
2  2 1 3 1 4 -1 0
2  10 1 11 1 12 -1 2 1 3 1 4 -1 0
2  5 -1 0
2  1 -1 0
2  12 -1 17 1 0
2  10 1 11 1 12 -1 17 1 0
2  11 -1 10 -1 0
1
              1               0               0               0 
              0               1               0               0 
              0               0               1               0 
2  26 1 12 -1 17 -1 12 1 11 -1 10 -1 0
2  1 -1 5 -1 4 1 3 -1 2 -1 17 -1 12 1 11 -1 10 -1 0
2  26 1 12 -1 0
2  1 -1 5 -1 4 1 3 -1 2 -1 12 1 26 -1 0
2  26 1 12 -1 2 1 3 1 4 -1 5 1 0
1
              1               0               0               0 
              0               1               0               0 
              0               0               1               0 
2  2 1 3 1 4 -1 5 1 32 1 0
2  5 1 32 1 0
2  1 -1 32 -1 5 -1 4 1 3 -1 2 -1 12 1 11 -1 10 -1 0
2  32 -1 5 -1 0
2  1 -1 32 -1 5 -1 4 1 3 -1 2 -1 0
2  1 -1 32 -1 5 -1 4 1 3 -1 0
2  3 1 4 -1 5 1 32 1 0
2  1 -1 32 -1 5 -1 4 1 3 -1 2 -1 17 -1 12 1 11 -1 10 -1 0
2  1 -1 32 -1 5 -1 4 1 3 -1 2 -1 12 1 26 -1 0
2  26 1 12 -1 2 1 3 1 4 -1 5 1 32 1 0
Curve2ds 104
1 0 0 0 -1 
1 6.2831853071795862 0 0 -1 
1 0 -2.6000000000000001 1 0 
1 0 0 1 0 
1 0 0 1 0 
2 0 0 0 -1 1 0 12.5
1 6.2831853071795862 0 0 1 
1 0 0 0 1 
1 0 3.3941125496954281 1 0 
2 100 -1.2e-16 0 -1 1 0 10.1
2 0 0 0 -1 1 0 7
1 0 0 1 0 
2 100 -1.2e-16 0 -1 1 0 9.5
1 3.1415926535897931 4.9999999999999778 -1 0 
2 100 -1.2e-16 0 -1 1 0 9.5
1 9.4247779607693793 4.9999999999999778 -1 0 
1 6.2831853071795862 0 0 1 
1 0 0 0 1 
1 0 32.999999999999993 1 0 
1 1.5707963267948966 7.8539816339744828 -0 -1 
1 0 1.5707963267948966 1 0 
1 0 7.8539816339744828 1 0 
1 3.1415926535897936 0 0 1 
1 7.8539816339744828 0 -1 -0 
1 6.2831853071795862 0 0 1 
1 0 0 0 1 
1 0 162 1 0 
1 3.1415926535897931 7.8539816339744828 -0 -1 
1 0 1.5707963267948966 1 0 
1 0 7.8539816339744828 1 0 
1 4.7123889803846897 0 0 1 
1 7.8539816339744828 0 -1 -0 
1 6.2831853071795862 0 0 1 
1 0 0 0 1 
1 -3.1415926535897931 27.999999999999972 1 0 
2 -100 -1.2e-16 0 -1 1 0 9.5
1 3.1415926535897931 27.999999999999972 1 0 
2 -100 -1.2e-16 0 -1 1 0 9.5
2 -100 -1.2e-16 0 -1 1 0 10.1
1 0 -3.3941125496954281 1 0 
1 6.2831853071795862 0 0 1 
1 0 0 0 1 
1 0 0 1 0 
1 0 -2.6000000000000001 1 0 
1 0 0 0 -1 
1 6.2831853071795862 0 0 -1 
1 0 0 1 0 
2 -1.4210854715202004e-14 0 0 -1 1 0 12.5
2 -1.4210854715202004e-14 0 0 -1 1 0 7
1 0 0 1 0 
1 6.2831853071795862 0 0 1 
1 0 0 0 1 
1 0 -8.0000000000000036 1 0 
2 0 0 0 -1 1 0 7
2 0 0 0 -1 1 0 12.5
1 0 0 1 0 
1 0 0 0 -1 
1 6.2831853071795862 0 0 -1 
1 0 -2.6000000000000001 1 0 
1 0 0 1 0 
1 6.2831853071795862 0 0 1 
1 0 0 0 1 
1 0 3.3941125496954281 1 0 
2 100 -1.2e-16 0 -1 1 0 10.1
2 100 -1.2e-16 0 -1 1 0 9.5
1 3.1415926535897931 4.9999999999999778 -1 0 
2 100 -1.2e-16 0 -1 1 0 9.5
1 9.4247779607693793 4.9999999999999778 -1 0 
1 6.2831853071795862 0 0 1 
1 0 0 0 1 
1 0 32.999999999999993 1 0 
1 1.5707963267948966 7.8539816339744828 -0 -1 
1 0 1.5707963267948966 1 0 
1 0 7.8539816339744828 1 0 
1 3.1415926535897936 0 0 1 
1 7.8539816339744828 0 -1 -0 
1 6.2831853071795862 0 0 1 
1 0 0 0 1 
1 0 162 1 0 
1 3.1415926535897931 7.8539816339744828 -0 -1 
1 0 1.5707963267948966 1 0 
1 0 7.8539816339744828 1 0 
1 4.7123889803846897 0 0 1 
1 7.8539816339744828 0 -1 -0 
1 6.2831853071795862 0 0 1 
1 0 0 0 1 
1 -3.1415926535897931 27.999999999999972 1 0 
2 -100 -1.2e-16 0 -1 1 0 9.5
1 3.1415926535897931 27.999999999999972 1 0 
2 -100 -1.2e-16 0 -1 1 0 9.5
2 -100 -1.2e-16 0 -1 1 0 10.1
1 0 -3.3941125496954281 1 0 
1 6.2831853071795862 0 0 1 
1 0 0 0 1 
1 0 0 1 0 
1 0 -2.6000000000000001 1 0 
1 0 0 0 -1 
1 6.2831853071795862 0 0 -1 
1 0 0 1 0 
2 -1.4210854715202004e-14 0 0 -1 1 0 12.5
2 -1.4210854715202004e-14 0 0 -1 1 0 7
1 0 -8.0000000000000888 1 0 
1 6.2831853071795862 0 0 1 
1 0 0 0 1 
Curves 52
1 -12.5 2.2199999999999999e-14 100 0 -1 2.2e-16 
2 0 -2.6000000000000001 100 0 1 -0 -1 0 0 0 0 1 12.5
2 0 100 0 0 0 1 1 0 -0 -0 1 0 12.5
1 -12.5 -2.6000000000000001 100 0.70710678118654835 -0.70710678118654668 0 
2 0 -5 100 0 1 -0 -1 0 0 0 0 1 10.1
2 0 4.4409999999999997e-14 100 0 1 -2.2e-16 -1 0 0 0 2.2e-16 1 7
2 0 100 -0 0 0 1 1 0 -0 -0 1 0 9.5
2 0 100 -0 0 0 1 1 0 -0 -0 1 0 9.5
1 9.5 0 100 0 -1 0 
2 0 -32.999999999999993 100 0 -1 0 1 0 0 -0 0 1 9.5
2 9.5 -32.999999999999993 81 1 0 0 -0 1 0 0 -0 1 19.000000000000004
2 0 -51.999999999999993 81 0 -3.2000000000000002e-16 1 -0 -1 -3.2000000000000002e-16 1 0 -0 9.5
1 9.5 -51.999999999999993 81 0 0 -1 
2 0 -51.999999999999993 -81 0 0 -1 1 0 0 0 -1 0 9.5
2 9.5 -32.999999999999993 -81 1 0 0 -0 1 0 0 -0 1 19.000000000000004
2 0 -32.999999999999993 -100 0 -1 1.7999999999999999e-16 -0 -1.7999999999999999e-16 -1 1 0 -0 9.5
1 9.5 -32.999999999999993 -100 0 1 0 
2 0 -100 -0 0 0 1 1 0 -0 -0 1 0 9.5
2 0 -100 -0 0 0 1 1 0 -0 -0 1 0 9.5
2 0 -5 -100 0 1 -0 -1 0 0 0 0 1 10.1
1 -12.5 -2.6000000000000001 -100 -0.70710678118654835 0.70710678118654668 0 
2 0 -2.6000000000000001 -100 0 1 -0 -1 0 0 0 0 1 12.5
1 -12.5 -2.2199999999999999e-14 -100 0 -1 2.2e-16 
2 0 -100 0 0 0 1 1 0 -0 -0 1 0 12.5
2 0 0 -100 0 1 -2.2e-16 -1 0 0 0 2.2e-16 1 7
7 0 0  1 2 2  -7 8.000000000000048 100  -7 4.4409999999999997e-14 100 
 -8.0000000000000036 2 0 2
2 0 8.0000000000000462 100 0 1 2.2e-16 -1 0 0 0 -2.2e-16 1 7
2 0 100 8.0000000000000444 -0 4.4e-16 1 1 0 0 0 1 -4.4e-16 12.5
1 -12.5 8.0000000000000675 100 0 1 2.2e-16 
2 0 10.600000000000088 100 0 1 0 -1 0 0 0 -0 1 12.5
1 -12.5 10.600000000000088 100 0.70710678118654835 0.70710678118654668 0 
2 0 13.000000000000089 100 0 1 0 -1 0 0 0 -0 1 10.1
2 0 100 18.000000000000043 -0 4.4e-16 1 1 0 0 0 1 -4.4e-16 9.5
2 0 100 18.000000000000043 -0 4.4e-16 1 1 0 0 0 1 -4.4e-16 9.5
1 9.5 8.0000000000000888 100 0 1 0 
2 0 41.000000000000085 100 0 -1 0 1 0 0 -0 0 1 9.5
2 9.5 41.000000000000085 81 -1 0 0 -0 -1 -0 0 -0 1 19.000000000000004
2 0 60.000000000000085 81 0 -3.2000000000000002e-16 -1 0 1 -3.2000000000000002e-16 1 0 0 9.5
1 9.5 60.000000000000085 81 -0 -0 -1 
2 0 60.000000000000085 -81 0 0 1 1 0 -0 -0 1 0 9.5
2 9.5 41.000000000000085 -81 -1 0 0 -0 -1 -0 0 -0 1 19.000000000000004
2 0 41.000000000000085 -100 0 -1 -1.7999999999999999e-16 0 1.7999999999999999e-16 -1 1 0 0 9.5
1 9.5 41.000000000000085 -100 -0 -1 -0 
2 0 -100 18.000000000000135 -0 4.4e-16 1 1 0 0 0 1 -4.4e-16 9.5
2 0 -100 18.000000000000135 -0 4.4e-16 1 1 0 0 0 1 -4.4e-16 9.5
2 0 13.000000000000089 -100 0 1 0 -1 0 0 0 -0 1 10.1
1 -12.5 10.600000000000088 -100 -0.70710678118654835 -0.70710678118654668 -0 
2 0 10.600000000000088 -100 0 1 0 -1 0 0 0 -0 1 12.5
1 -12.5 8.0000000000001101 -100 0 1 2.2e-16 
2 0 -100 8.0000000000001332 -0 4.4e-16 1 1 0 0 0 1 -4.4e-16 12.5
2 0 8.0000000000000888 -100 0 1 2.2e-16 -1 0 0 0 -2.2e-16 1 7
7 0 0  1 2 2  -7 8.0000000000000888 -100  -7 -0 -100 
 -8.0000000000000888 2 0 2
Polygon3D 0
PolygonOnTriangulations 0
Surfaces 28
2 0 2.2199999999999999e-14 100 0 1 -2.2e-16 -1 0 0 0 2.2e-16 1 12.5
3 0 -2.6000000000000001 100 -0 -1 -0 -1 0 0 -0 -0 1 12.5
-0.7853981633974495
1 0 2.2199999999999999e-14 100 0 1 0 0 -0 1 1 0 -0 
1 1.2e-16 0 4.9699999999999999e-15 0 1 0 0 -0 1 1 0 -0 
10 0 6.2831853071795862 -8.0000000000000036 0
2 0 4.4409999999999997e-14 100 0 -1 2.2e-16 -1 0 0 0 2.2e-16 1 7
10 0 6.2831853071795862 0 32.999999999999993
2 0 0 100 0 -1 0 1 0 0 -0 0 1 9.5
10 1.5707963267948966 3.1415926535897936 1.5707963267948966 7.8539816339744828
5 0 -32.999999999999993 81 1 0 0 -0 1 0 0 -0 1 19 9.5
10 0 6.2831853071795862 0 162
2 0 -51.999999999999993 81 0 0 -1 1 0 0 0 -1 0 9.5
10 3.1415926535897931 4.7123889803846897 1.5707963267948966 7.8539816339744828
5 0 -32.999999999999993 -81 1 0 0 -0 1 0 0 -0 1 19 9.5
10 0 6.2831853071795862 0 32.999999999999993
2 0 -32.999999999999993 -100 0 1 0 1 0 0 0 0 -1 9.5
1 1.2e-16 0 4.9699999999999999e-15 0 1 0 0 -0 1 1 0 -0 
3 0 -2.6000000000000001 -100 0 1 0 -1 0 0 0 -0 1 12.5
0.7853981633974495
2 0 -2.2199999999999999e-14 -100 0 1 -2.2e-16 -1 0 0 0 2.2e-16 1 12.5
1 0 -2.2199999999999999e-14 -99.999999999999986 0 1 0 0 -0 1 1 0 -0 
10 0 6.2831853071795862 -8.0000000000000888 0
2 0 0 -100 0 -1 2.2e-16 -1 0 0 0 2.2e-16 1 7
1 0 8.0000000000000675 100 -0 -1 -0 0 0 1 1 -0 -0 
2 0 8.0000000000000675 100 -0 -1 -2.2e-16 -1 0 0 -0 -2.2e-16 1 12.5
3 0 10.600000000000088 100 0 1 0 -1 0 0 0 -0 1 12.5
-0.7853981633974495
1 1.2e-16 18.000000000000089 4.9699999999999999e-15 -0 -1 -0 0 0 1 1 -0 -0 
10 0 6.2831853071795862 0 32.999999999999993
2 0 8.0000000000000888 100 0 1 0 1 0 0 -0 -0 1 9.5
10 1.5707963267948966 3.1415926535897936 1.5707963267948966 7.8539816339744828
5 0 41.000000000000085 81 1 0 0 0 -1 0 -0 -0 1 19 9.5
10 0 6.2831853071795862 0 162
2 0 60.000000000000085 81 -0 -0 -1 1 0 0 -0 1 -0 9.5
10 3.1415926535897931 4.7123889803846897 1.5707963267948966 7.8539816339744828
5 0 41.000000000000085 -81 1 0 0 0 -1 0 -0 -0 1 19 9.5
10 0 6.2831853071795862 0 32.999999999999993
2 0 41.000000000000085 -100 -0 -1 -0 1 -0 0 0 -0 -1 9.5
1 1.2e-16 18.000000000000089 4.9699999999999999e-15 -0 -1 -0 0 0 1 1 -0 -0 
3 0 10.600000000000088 -100 -0 -1 -0 -1 0 0 -0 -0 1 12.5
0.7853981633974495
2 0 8.0000000000001101 -100 -0 -1 -2.2e-16 -1 0 0 -0 -2.2e-16 1 12.5
1 0 8.0000000000001101 -99.999999999999986 -0 -1 -0 0 0 1 1 -0 -0 
Triangulations 0

TShapes 150
Ve
1e-07
-12.5 -2.6 100
0 0

0101101
*
Ve
1e-07
-12.5 2.2e-14 100
0 0

0101101
*
Ed
 1e-07 1 1 0
1  1 0 0 2.6
3  1 2CN 1 0 0 2.6
0

0101000
-150 8 +149 8 *
Ed
 1e-07 1 1 0
1  2 0 0 6.28318530717959
2  3 1 2 0 6.28318530717959
2  4 2 0 0 6.28318530717959
0

0101000
+150 9 -150 9 *
Ed
 1e-07 1 1 0
1  3 0 0 6.28318530717959
2  5 1 14 0 6.28318530717959
2  6 3 14 0 6.28318530717959
0

0101100
+149 15 -149 15 *
Wi

0101100
+148 2 +147 0 -146 13 -148 2 *
Fa
0  1e-07 1 0

0101000
+145 7 *
Ve
1e-07
-10.1 -5 100
0 0

0101101
*
Ed
 1e-07 1 1 0
1  4 0 0 3.39411254969543
3  7 8CN 2 0 0 3.39411254969543
0

0101000
+150 9 -143 9 *
Ed
 1e-07 1 1 0
1  5 0 0 6.28318530717959
2  9 2 0 0 6.28318530717959
2  10 4 18 0 6.28318530717959
0

0101000
+143 9 -143 9 *
Wi

0101100
-142 0 +147 0 -141 0 +142 0 *
Fa
0  1e-07 2 0

0101000
+140 0 *
Wi

0101100
+146 20 *
Ve
1e-05
-7 4.4e-14 100
0 0

0101101
*
Ed
 1e-07 1 1 0
1  6 0 0 6.28318530717959
2  11 3 6 0 6.28318530717959
2  12 5 0 0 6.28318530717959
0

0101000
+137 22 -137 22 *
Wi

0101100
-136 21 *
Fa
0  1e-07 3 19

0101000
+138 0 +135 0 *
Wi

0101100
+141 0 *
Ve
1.00000015e-07
-9.5 -4.99999999999998 100
0 0

0101101
*
Ve
1.00000199e-07
9.5 -4.99999999999998 100
0 0

0101101
*
Ed
 1.00000003e-07 1 1 0
1  7 0 0 3.14159265358979
2  13 4 25 0 3.14159265358979
2  14 6 27 0 3.14159265358979
0

0101000
+132 28 -131 28 *
Ed
 1.00000015e-07 1 1 0
1  8 0 3.14159265358979 6.28318530717959
2  15 4 25 3.14159265358979 6.28318530717959
2  16 6 27 3.14159265358979 6.28318530717959
0

0101000
+131 28 -132 28 *
Wi

0101100
+130 24 +129 24 *
Fa
0  1e-07 4 23

0101000
+133 7 -128 0 *
Ve
1.0000007e-07
9.5 -33 100
0 0

0101101
*
Ed
 1e-07 1 1 0
1  9 0 4.99999999999998 33
3  17 18G1 6 0 4.99999999999998 33
0

0101000
+131 30 -126 30 *
Ed
 1e-07 1 1 0
1  10 0 0 6.28318530717959
2  19 6 0 0 6.28318530717959
2  20 7 0 0 6.28318530717959
4 G1 6 0 7 0
0

0101100
+126 30 -126 30 *
Wi

0101100
-129 24 -130 24 -125 29 -124 29 +125 29 *
Fa
0  1e-07 6 29

0101000
+123 0 *
Ve
1.00000002e-07
9.5 -52 81
0 0

0101101
*
Ed
 1e-07 1 1 0
1  11 0 1.5707963267949 3.14159265358979
3  21 22G1 7 0 1.5707963267949 3.14159265358979
0

0101000
+126 30 -121 30 *
Ed
 1e-07 1 1 0
1  12 0 1.5707963267949 7.85398163397448
2  23 7 0 1.5707963267949 7.85398163397448
2  24 8 0 1.5707963267949 7.85398163397448
4 G1 7 0 8 0
0

0101100
+121 30 -121 30 *
Wi

0101100
+120 0 +124 0 -120 0 +119 0 *
Fa
0  1e-07 7 0

0101000
+118 0 *
Ve
1.00000153e-07
9.5 -52 -81
0 0

0101101
*
Ed
 1e-07 1 1 0
1  13 0 0 162
3  25 26G1 8 0 0 162
0

0101000
+121 30 -116 30 *
Ed
 1e-07 1 1 0
1  14 0 0 6.28318530717959
2  27 8 0 0 6.28318530717959
2  28 9 0 0 6.28318530717959
4 G1 8 0 9 0
0

0101100
+116 30 -116 30 *
Wi

0101100
+115 0 -119 0 -115 0 -114 0 *
Fa
0  1e-07 8 0

0101000
+113 0 *
Ve
1.00000002e-07
9.5 -33 -100
0 0

0101101
*
Ed
 1e-07 1 1 0
1  15 0 3.14159265358979 4.71238898038469
3  29 30G1 9 0 3.14159265358979 4.71238898038469
0

0101000
+116 30 -111 30 *
Ed
 1e-07 1 1 0
1  16 0 1.5707963267949 7.85398163397448
2  31 9 0 1.5707963267949 7.85398163397448
2  32 10 0 1.5707963267949 7.85398163397448
4 G1 9 0 10 0
0

0101100
+111 30 -111 30 *
Wi

0101100
+110 0 +114 0 -110 0 +109 0 *
Fa
0  1e-07 9 0

0101000
+108 0 *
Ve
1.00000199e-07
9.5 -5.00000000000002 -99.9999999999998
0 0

0101101
*
Ed
 1e-07 1 1 0
1  17 0 0 28
3  33 34G1 10 0 0 28
0

0101000
+111 30 -106 30 *
Ve
1.00000005e-07
-9.5 -5.00000000000002 -100
0 0

0101101
*
Ed
 1.00000003e-07 1 1 0
1  18 0 3.14159265358979 6.28318530717959
2  35 10 27 3.14159265358979 6.28318530717959
2  36 11 25 3.14159265358979 6.28318530717959
0

0101000
+106 28 -104 28 *
Ed
 1.00000005e-07 1 1 0
1  19 0 0 3.14159265358979
2  37 10 27 0 3.14159265358979
2  38 11 25 0 3.14159265358979
0

0101000
+104 28 -106 28 *
Wi

0101100
-109 29 -105 29 -103 24 -102 24 +105 29 *
Fa
0  1e-07 10 29

0101000
+101 0 *
Ve
1e-07
-10.1 -5 -100
0 0

0101101
*
Ed
 1e-07 1 1 0
1  20 0 0 6.28318530717959
2  39 11 18 0 6.28318530717959
2  40 12 0 0 6.28318530717959
0

0101000
+99 9 -99 9 *
Wi

0101100
+98 0 *
Wi

0101100
+102 24 +103 24 *
Fa
0  1e-07 11 23

0101000
+97 7 -96 0 *
Ve
1e-07
-12.5 -2.6 -100
0 0

0101101
*
Ed
 1e-07 1 1 0
1  21 0 -3.39411254969543 0
3  41 42CN 12 0 -3.39411254969543 0
0

0101000
+99 9 -94 9 *
Ed
 1e-07 1 1 0
1  22 0 0 6.28318530717959
2  43 12 0 0 6.28318530717959
2  44 13 2 0 6.28318530717959
0

0101000
+94 9 -94 9 *
Wi

0101100
-93 0 +98 0 -92 0 +93 0 *
Fa
0  1e-07 12 0

0101000
+91 0 *
Ve
1e-07
-12.5 -2.2e-14 -100
0 0

0101101
*
Ed
 1e-07 1 1 0
1  23 0 0 2.6
3  45 46CN 13 0 0 2.6
0

0101000
-94 8 +89 8 *
Ed
 1e-07 1 1 0
1  24 0 0 6.28318530717959
2  47 13 14 0 6.28318530717959
2  48 14 14 0 6.28318530717959
0

0101100
+89 15 -89 15 *
Wi

0101100
+88 2 +92 0 -87 13 -88 2 *
Fa
0  1e-07 13 0

0101000
+86 7 *
Wi

0101100
+87 20 *
Ve
1e-05
-7 0 -100
0 0

0101101
*
Ed
 1e-07 1 1 0
1  25 0 0 6.28318530717959
2  49 14 6 0 6.28318530717959
2  50 15 0 0 6.28318530717959
0

0101000
+83 22 -83 22 *
Wi

0101100
-82 21 *
Fa
0  1e-07 14 19

0101000
+84 0 +81 0 *
Ve
1e-05
-7 8.00000000000004 100
0 0

0101101
*
Ed
 1e-05 1 1 0
1  26 0 -8 0
3  51 52C0 5 0 -8 0
0

0101000
-137 22 +79 22 *
Ed
 1e-07 1 1 0
1  27 0 0 6.28318530717959
2  53 5 0 0 6.28318530717959
2  54 16 33 0 6.28318530717959
0

0101000
+79 22 -79 22 *
Wi

0101100
-136 0 -78 0 +77 0 +78 0 *
Fa
0  1e-07 5 0

0101000
+76 0 *
Ve
1e-07
-12.5 8.00000000000007 100
0 0

0101101
*
Ed
 1e-07 1 1 0
1  28 0 0 6.28318530717959
2  55 16 14 0 6.28318530717959
2  56 17 14 0 6.28318530717959
0

0101100
+74 35 -74 35 *
Wi

0101100
+73 20 *
Wi

0101100
-77 36 *
Fa
0  1e-07 16 19

0101000
+72 0 +71 0 *
Ve
1e-07
-12.5 10.6000000000001 100
0 0

0101101
*
Ed
 1e-07 1 1 0
1  29 0 0 2.6
3  57 58CN 17 0 0 2.6
0

0101000
-69 37 +74 37 *
Ed
 1e-07 1 1 0
1  30 0 0 6.28318530717959
2  59 17 2 0 6.28318530717959
2  60 18 0 0 6.28318530717959
0

0101000
+69 38 -69 38 *
Wi

0101100
+68 2 +67 0 -73 13 -68 2 *
Fa
0  1e-07 17 0

0101000
+66 7 *
Ve
1e-07
-10.1 13.0000000000001 100
0 0

0101101
*
Ed
 1e-07 1 1 0
1  31 0 0 3.39411254969543
3  61 62CN 18 0 0 3.39411254969543
0

0101000
+69 38 -64 38 *
Ed
 1e-07 1 1 0
1  32 0 0 6.28318530717959
2  63 18 0 0 6.28318530717959
2  64 19 18 0 6.28318530717959
0

0101000
+64 38 -64 38 *
Wi

0101100
-63 0 +67 0 -62 0 +63 0 *
Fa
0  1e-07 18 0

0101000
+61 0 *
Wi

0101100
+62 0 *
Ve
1.00000015e-07
-9.5 13.0000000000001 100
0 0

0101101
*
Ve
1.00000199e-07
9.5 13.0000000000001 100
0 0

0101101
*
Ed
 1.00000003e-07 1 1 0
1  33 0 0 3.14159265358979
2  65 19 25 0 3.14159265358979
2  66 20 27 0 3.14159265358979
0

0101000
+58 40 -57 40 *
Ed
 1.00000015e-07 1 1 0
1  34 0 3.14159265358979 6.28318530717959
2  67 19 25 3.14159265358979 6.28318530717959
2  68 20 27 3.14159265358979 6.28318530717959
0

0101000
+57 40 -58 40 *
Wi

0101100
+56 24 +55 24 *
Fa
0  1e-07 19 23

0101000
+59 7 -54 0 *
Ve
1.0000007e-07
9.5 41.0000000000001 100
0 0

0101101
*
Ed
 1e-07 1 1 0
1  35 0 4.99999999999998 33
3  69 70G1 20 0 4.99999999999998 33
0

0101000
+57 41 -52 41 *
Ed
 1e-07 1 1 0
1  36 0 0 6.28318530717959
2  71 20 0 0 6.28318530717959
2  72 21 0 0 6.28318530717959
4 G1 20 0 21 0
0

0101100
+52 41 -52 41 *
Wi

0101100
-55 24 -56 24 -51 29 -50 29 +51 29 *
Fa
0  1e-07 20 29

0101000
+49 0 *
Ve
1.00000002e-07
9.5 60.0000000000001 81
0 0

0101101
*
Ed
 1e-07 1 1 0
1  37 0 1.5707963267949 3.14159265358979
3  73 74G1 21 0 1.5707963267949 3.14159265358979
0

0101000
+52 41 -47 41 *
Ed
 1e-07 1 1 0
1  38 0 1.5707963267949 7.85398163397448
2  75 21 0 1.5707963267949 7.85398163397448
2  76 22 0 1.5707963267949 7.85398163397448
4 G1 21 0 22 0
0

0101100
+47 41 -47 41 *
Wi

0101100
+46 0 +50 0 -46 0 +45 0 *
Fa
0  1e-07 21 0

0101000
+44 0 *
Ve
1.00000153e-07
9.5 60.0000000000001 -81
0 0

0101101
*
Ed
 1e-07 1 1 0
1  39 0 0 162
3  77 78G1 22 0 0 162
0

0101000
+47 41 -42 41 *
Ed
 1e-07 1 1 0
1  40 0 0 6.28318530717959
2  79 22 0 0 6.28318530717959
2  80 23 0 0 6.28318530717959
4 G1 22 0 23 0
0

0101100
+42 41 -42 41 *
Wi

0101100
+41 0 -45 0 -41 0 -40 0 *
Fa
0  1e-07 22 0

0101000
+39 0 *
Ve
1.00000002e-07
9.5 41.0000000000001 -100
0 0

0101101
*
Ed
 1e-07 1 1 0
1  41 0 3.14159265358979 4.71238898038469
3  81 82G1 23 0 3.14159265358979 4.71238898038469
0

0101000
+42 41 -37 41 *
Ed
 1e-07 1 1 0
1  42 0 1.5707963267949 7.85398163397448
2  83 23 0 1.5707963267949 7.85398163397448
2  84 24 0 1.5707963267949 7.85398163397448
4 G1 23 0 24 0
0

0101100
+37 41 -37 41 *
Wi

0101100
+36 0 +40 0 -36 0 +35 0 *
Fa
0  1e-07 23 0

0101000
+34 0 *
Ve
1.00000199e-07
9.5 13.0000000000001 -99.9999999999998
0 0

0101101
*
Ed
 1e-07 1 1 0
1  43 0 0 28
3  85 86G1 24 0 0 28
0

0101000
+37 41 -32 41 *
Ve
1.00000005e-07
-9.5 13.0000000000001 -100
0 0

0101101
*
Ed
 1.00000003e-07 1 1 0
1  44 0 3.14159265358979 6.28318530717959
2  87 24 27 3.14159265358979 6.28318530717959
2  88 25 25 3.14159265358979 6.28318530717959
0

0101000
+32 40 -30 40 *
Ed
 1.00000005e-07 1 1 0
1  45 0 0 3.14159265358979
2  89 24 27 0 3.14159265358979
2  90 25 25 0 3.14159265358979
0

0101000
+30 40 -32 40 *
Wi

0101100
-35 29 -31 29 -29 24 -28 24 +31 29 *
Fa
0  1e-07 24 29

0101000
+27 0 *
Ve
1e-07
-10.1 13.0000000000001 -100
0 0

0101101
*
Ed
 1e-07 1 1 0
1  46 0 0 6.28318530717959
2  91 25 18 0 6.28318530717959
2  92 26 0 0 6.28318530717959
0

0101000
+25 38 -25 38 *
Wi

0101100
+24 0 *
Wi

0101100
+28 24 +29 24 *
Fa
0  1e-07 25 23

0101000
+23 7 -22 0 *
Ve
1e-07
-12.5 10.6000000000001 -100
0 0

0101101
*
Ed
 1e-07 1 1 0
1  47 0 -3.39411254969543 0
3  93 94CN 26 0 -3.39411254969543 0
0

0101000
+25 38 -20 38 *
Ed
 1e-07 1 1 0
1  48 0 0 6.28318530717959
2  95 26 0 0 6.28318530717959
2  96 27 2 0 6.28318530717959
0

0101000
+20 38 -20 38 *
Wi

0101100
-19 0 +24 0 -18 0 +19 0 *
Fa
0  1e-07 26 0

0101000
+17 0 *
Ve
1e-07
-12.5 8.00000000000011 -100
0 0

0101101
*
Ed
 1e-07 1 1 0
1  49 0 0 2.6
3  97 98CN 27 0 0 2.6
0

0101000
-20 37 +15 37 *
Ed
 1e-07 1 1 0
1  50 0 0 6.28318530717959
2  99 27 14 0 6.28318530717959
2  100 28 14 0 6.28318530717959
0

0101100
+15 35 -15 35 *
Wi

0101100
+14 2 +18 0 -13 13 -14 2 *
Fa
0  1e-07 27 0

0101000
+12 7 *
Wi

0101100
+13 20 *
Ve
1e-05
-7 8.00000000000009 -100
0 0

0101101
*
Ed
 1e-07 1 1 0
1  51 0 0 6.28318530717959
2  101 28 33 0 6.28318530717959
2  102 15 0 0 6.28318530717959
0

0101000
+9 22 -9 22 *
Wi

0101100
-8 36 *
Fa
0  1e-07 28 19

0101000
+10 0 +7 0 *
Ed
 1e-05 1 1 0
1  52 0 -8.00000000000009 0
3  103 104C0 15 0 -8.00000000000009 0
0

0101000
-83 22 +9 22 *
Wi

0101100
-82 0 -5 0 +8 0 +5 0 *
Fa
0  1e-07 15 0

0101000
+4 0 *
Sh

0101100
+144 6 -139 16 +134 5 -127 6 +122 6 +117 31 +112 31 +107 31 +100 6 -95 6 
+90 16 +85 6 +80 5 -75 0 -70 34 -65 33 +60 39 +53 33 -48 33 -43 42 
-38 42 -33 42 -26 33 +21 33 -16 39 -11 33 -6 34 -3 0 *
So

1100000
+2 0 *

+1 1 