DBRep_DrawableShape

CASCADE Topology V1, (c) Matra-Datavision
Locations 51
1
              1               0               0               0 
              0               1               0               0 
              0               0               1               0 
1
              1               0               0               0 
              0               1               0               0 
              0               0               1               0 
1
              1               0               0               0 
              0               1               0               0 
              0               0               1               0 
2  2 -1 0
2  3 1 2 1 0
1
              1               0               0               0 
              0              -0              -1               0 
              0               1              -0               0 
2  6 -1 2 -1 3 -1 0
2  6 -1 0
1
              1               0               0               0 
              0              -0              -1               0 
              0               1              -0               0 
1
              1               0               0               0 
              0              -0              -1               0 
              0               1              -0               0 
1
              1               0               0               0 
              0              -0              -1               0 
              0               1              -0               0 
1
              1               0               0               0 
              0               1               0               0 
              0               0               1               0 
1
              1               0               0               0 
              0               1               0               0 
              0               0               1               0 
1
              1               0               0               0 
              0              -0              -1               0 
              0               1              -0               0 
1
              1               0               0               0 
              0              -0              -1               0 
              0               1              -0               0 
1
              1               0               0               0 
              0              -0              -1               0 
              0               1              -0               0 
1
              1               0               0               0 
              0              -0              -1               0 
              0               1              -0               0 
2  9 -1 10 1 11 -1 12 1 13 1 14 1 15 -1 16 1 17 -1 0
1
              1               0               0               0 
              0               1               0               0 
              0               0               1               0 
1
              1               0               0               0 
              0               0              -1               0 
              0               1               0               0 
2  19 1 20 1 9 -1 10 1 11 -1 12 1 13 1 14 1 15 -1 16 1 17 -1 0
2  6 -1 2 -1 17 1 16 -1 15 1 14 -1 13 -1 12 -1 11 1 10 -1 9 1 20 -1 19 -1 0
2  14 1 15 -1 16 1 17 -1 0
2  6 -1 2 -1 17 1 16 -1 15 1 14 -1 0
2  13 1 14 1 15 -1 16 1 17 -1 0
2  6 -1 2 -1 17 1 16 -1 15 1 14 -1 13 -1 0
2  15 -1 16 1 17 -1 0
1
              1               0               0               0 
              0               1               0               0 
              0               0               1               0 
1
              1               0               0               0 
              0               0               1             -12 
              0              -1               0          -3e-15 
2  28 1 29 1 15 -1 16 1 17 -1 0
2  6 -1 2 -1 17 1 16 -1 15 1 29 -1 28 -1 0
2  16 1 17 -1 2 1 0
2  10 1 11 -1 12 1 13 1 14 1 15 -1 0
2  19 1 20 1 9 -1 10 1 11 -1 12 1 13 1 14 1 15 -1 0
2  13 1 14 1 15 -1 0
2  10 1 11 -1 12 1 0
2  12 1 13 1 14 1 15 -1 0
2  6 -1 2 -1 17 1 16 -1 15 1 14 -1 13 -1 12 -1 0
2  6 -1 2 -1 17 1 16 -1 0
2  28 1 29 1 15 -1 0
2  14 1 15 -1 0
2  10 1 11 -1 12 1 13 1 0
2  14 1 15 -1 16 1 17 -1 2 1 0
2  13 1 14 1 15 -1 16 1 17 -1 2 1 0
2  12 1 13 1 14 1 15 -1 16 1 17 -1 2 1 0
2  10 1 11 -1 0
2  13 -1 12 -1 0
2  19 1 20 1 9 -1 10 1 11 -1 12 1 13 1 0
2  12 -1 0
2  19 1 20 1 9 -1 10 1 11 -1 12 1 0
2  12 1 13 1 0
Curve2ds 76
1 6.2831853071795862 0 0 1 
1 0 0 0 1 
1 6.2831853071795862 11 -1 -0 
1 0 0 1 0 
1 0 0 1 0 
1 6.2831853071795862 0 0 1 
1 0 0 0 1 
1 0 1.4142135623730951 1 0 
1 -3.1415926535897931 19.999999999999996 1 0 
1 -1.5707963267948966 1.0000000000000001e-15 1 0 
1 0 -1.0000000000000001e-15 1 0 
1 -4.7123889803846897 19.999999999999996 1 0 
1 0 0 0 1 
1 3.1415926535897931 0 0 -1 
1 1.5707963267948966 0 0 1 
1 -4.7123889803846897 -2.89e-15 1 0 
1 1.0495915433002145 0 0 1 
1 0 0 0 1 
1 1.5707963267948966 0 0 1 
1 0 19.999999999999996 1 0 
1 0 0 0 1 
1 0 0 0 1 
1 0 4.7123889803846897 1 0 
1 0 4.7123889803846897 1 0 
1 0 4.7123889803846897 1 0 
1 0 4.7123889803846897 1 0 
1 1.5707963267948966 0 0 1 
1 0 1.5707963267948966 1 0 
1 0 1.5707963267948966 1 0 
1 0 1.5707963267948966 1 0 
1 0 1.5707963267948966 1 0 
1 1.5707963267948966 0 0 1 
1 0 19.999999999999996 1 0 
1 0 4.7123889803846897 0 1 
1 0 2.2200000000000002e-15 1 0 
1 1.0495915433002143 0 0 1 
1 0 0 0 1 
1 0 0 0 -1 
1 0 -10.499999999999989 1 0 
1 0 -10.499999999999993 1 0 
1 0 -10.499999999999989 1 0 
1 0 -18.499999999999989 1 0 
1 0 -18.499999999999993 1 0 
1 0 -18.499999999999989 1 0 
1 3.1415926535897931 -9.9999999999999964 -1 -0 
1 0 0 1 0 
1 2.0920011102895781 0 0 -1 
1 2.0920011102895781 0 0 -1 
1 2.0920011102895786 -18.999999999999993 1 0 
1 0 6.2831853071795862 1 0 
1 -4.4e-16 0 0 1 
1 0.5212047834946818 0 0 1 
1 1.049591543300215 0 0 1 
1 0 0 0 1 
1 0 6.2831853071795862 1 0 
1 0 -18.999999999999996 1 0 
1 1.0495915433002143 0 0 1 
1 1.5e-16 0 0 1 
1 0 6.2831853071795862 1 0 
1 1.0495915433002141 -18.999999999999993 1 0 
1 0.52120478349468202 0 0 1 
1 0 0 0 1 
1 0 6.2831853071795862 1 0 
1 1.5707963267948963 -18.999999999999993 1 0 
1 0 0 0 1 
1 0.52120478349468213 0 0 1 
1 0 0 1 0 
1 1.0495915433002143 -9.9999999999999911 -1 -0 
1 0 0 1 0 
1 2.0920011102895781 -9.9999999999999929 -1 -0 
1 0.5212047834946818 0 0 1 
1 0 0 0 1 
1 0 0 1 0 
1 1.5707963267948963 -9.9999999999999911 -1 -0 
1 1.0495915433002143 0 0 -1 
1 1.0495915433002141 0 1.0000000000000001e-17 -1 
Curves 71
1 -2.75 0 0 4.9999999999999999e-17 -1 2.2e-16 
2 0 -11 0 -0 -1 0 -1 0 9.6999999999999998e-16 -9.6999999999999998e-16 0 -1 2.75
2 0 0 0 0 1 -2.2e-16 -1 0 0 0 2.2e-16 1 2.75
1 -2.75 -11 2.6599999999999998e-15 -0.70710678118654757 -0.70710678118654746 6.8999999999999997e-16 
2 0 -12 0 -0 -1 0 -1 0 9.6999999999999998e-16 -9.6999999999999998e-16 0 -1 3.75
1 20 3.2199999999999999e-15 -14.5 0 -2.2e-16 1 
8 3.1415926535897931 4.7123889803846897
2 10.000000000000002 1.0000000000000001e-15 -4.5000000000000018 0 -1 2.2e-16 0 2.2e-16 1 -1 0 0 10
8 1.5707963267948968 3.1415926535897931
2 10.000000000000002 0 4.5000000000000018 0 -1 2.2e-16 0 -2.2e-16 -1 1 0 0 10
1 -20 3.2199999999999999e-15 -14.5 1 0 0 
1 20 -3.2199999999999999e-15 14.5 -1 -0 0 
8 0 1.5707963267948966
2 -10.000000000000002 0 -4.5000000000000018 -0 1 -2.2e-16 0 -2.2e-16 -1 -1 -0 0 10
8 4.7123889803846897 6.2831853071795862
2 -10.000000000000002 -1.0000000000000001e-15 4.5000000000000018 0 1 -2.2e-16 0 2.2e-16 1 1 -0 0 10
1 -20 -3.2199999999999999e-15 14.5 0 2.2e-16 -1 
1 -20.000000000000004 12.000000000000002 7.9999999999999902 1 0 0 
1 -20.000000000000004 12 15.999999999999989 0 2.2e-16 -1 
1 19.999999999999996 12.000000000000002 7.9999999999999902 0 -2.2e-16 1 
1 19.999999999999996 12 15.999999999999989 -1 -0 0 
1 20 1.0000000000000001e-15 4.5000000000000018 0 -1 2.2e-16 
1 20.000000000000004 -19.999999999999996 14.5 0 0 -1 
1 19.999999999999996 -12.000000000000002 4.0000000000000107 0 -1 -2.2e-16 
1 19.999999999999996 -12 -3.9999999999999893 0 -1 -2.2e-16 
1 20.000000000000004 -19.999999999999996 14.5 0 0 -1 
1 20 -19.999999999999996 -4.4999999999999982 -0 1 -2.2e-16 
2 10.000000000000004 -20.000000000000011 -4.4999999999999956 -3.8999999999999998e-16 -1 2.2e-16 1 -3.8999999999999998e-16 0 8.579999999999999e-32 2.2e-16 1 10
1 10.000000000000002 -19.999999999999996 -14.499999999999996 -0 1 -2.2e-16 
1 10.000000000000002 3.2199999999999999e-15 14.500000000000002 0 -1 2.2e-16 
2 10.000000000000002 -19.999999999999993 4.5000000000000062 0 -1 2.2e-16 1 0 0 -0 2.2e-16 1 10
1 -10.000000000000002 -3.2199999999999999e-15 -14.500000000000002 0 -1 2.2e-16 
2 5.4545454545454639 -20.000000000000004 -14.499999999999996 0 2.2e-16 1 -1 3.1000000000000001e-16 -6.8200000000000003e-32 -3.1000000000000001e-16 -1 2.2e-16 15.454545454545464
2 -5.4545454545454568 -20.000000000000004 -14.499999999999996 0 2.2e-16 1 0.49792531120331934 -0.86721991701244827 1.9078838174273863e-16 0.86721991701244827 0.49792531120331934 -1.0954356846473026e-16 15.45454545454546
2 0 -29.500000000000014 -14.499999999999995 0 2.2e-16 1 -0.49792531120332018 -0.86721991701244783 1.9078838174273853e-16 0.86721991701244783 -0.49792531120332018 1.0954356846473044e-16 4.5
2 0 -29.500000000000014 -14.499999999999995 0 2.2e-16 1 -2.8000000000000001e-16 -1 2.2e-16 1 -2.8000000000000001e-16 6.1600000000000008e-32 4.5
1 -10.000000000000002 -19.999999999999996 14.500000000000007 -0 1 -2.2e-16 
2 -5.4545454545454568 -19.999999999999996 14.500000000000005 0 -2.2e-16 -1 1 -1.7e-16 3.7399999999999999e-32 -1.7e-16 -1 2.2e-16 15.45454545454546
2 5.4545454545454639 -19.999999999999996 14.500000000000005 0 -2.2e-16 -1 -0.49792531120331979 -0.86721991701244805 1.9078838174273858e-16 -0.86721991701244805 0.49792531120331979 -1.0954356846473036e-16 15.454545454545464
2 0 -29.500000000000007 14.500000000000005 0 -2.2e-16 -1 0.49792531120331912 -0.86721991701244838 1.9078838174273865e-16 -0.86721991701244838 -0.49792531120331912 1.0954356846473021e-16 4.5
2 0 -29.500000000000007 14.500000000000005 0 -2.2e-16 -1 -2.8000000000000001e-16 -1 2.2e-16 -1 2.8000000000000001e-16 -6.1600000000000008e-32 4.5
1 -20 -1.0000000000000001e-15 -4.5000000000000027 0 -1 2.2e-16 
2 -10.000000000000002 -20 -4.4999999999999973 -0 1 -2.2e-16 0 -2.2e-16 -1 -1 -0 0 10
2 -10 -19.999999999999996 4.5000000000000044 -6.0000000000000001e-17 1 -2.2e-16 -1 -6.0000000000000001e-17 0 -1.3200000000000001e-32 2.2e-16 1 10
1 -20 -19.999999999999996 4.5000000000000062 -0 1 -2.2e-16 
1 -20 -19.999999999999996 14.5 0 0 -1 
1 -20.000000000000004 -12 -3.9999999999999893 0 -1 -2.2e-16 
1 -20.000000000000004 -12.000000000000002 4.0000000000000107 0 -1 -2.2e-16 
1 -20 -19.999999999999996 14.5 0 0 -1 
2 -5.4545454545454568 -19.999999999999996 4.0000000000000098 0 0 1 -1 -0 0 0 -1 0 25.45454545454546
2 0 -29.500000000000007 4.000000000000008 0 0 1 -1 -0 0 0 -1 0 14.5
2 0 -29.500000000000007 4.000000000000008 0 0 1 -1 -0 0 0 -1 0 14.5
2 5.4545454545454639 -19.999999999999996 4.0000000000000098 0 0 1 -1 -0 0 0 -1 0 25.454545454545464
2 5.4545454545454639 -19.999999999999996 -3.9999999999999902 0 0 1 -1 -0 0 0 -1 0 25.454545454545464
2 0 -29.500000000000007 -3.9999999999999925 0 0 1 -1 -0 0 0 -1 0 14.5
2 0 -29.500000000000007 -3.9999999999999925 0 0 1 -1 -0 0 0 -1 0 14.5
2 -5.4545454545454568 -19.999999999999996 -3.9999999999999902 0 0 1 -1 -0 0 0 -1 0 25.45454545454546
2 -5.4545454545454568 -19.999999999999996 4.5000000000000044 0 -2.2e-16 -1 1 -1.7e-16 3.7399999999999999e-32 -1.7e-16 -1 2.2e-16 25.45454545454546
1 7.2199170124481249 -42.074688796680498 14.5 0 0 -1 
2 -5.4545454545454568 -20.000000000000004 -4.4999999999999956 0 2.2e-16 1 0.49792531120331934 -0.86721991701244827 1.9078838174273863e-16 0.86721991701244827 0.49792531120331934 -1.0954356846473026e-16 25.45454545454546
1 7.2199170124481249 -42.074688796680498 14.5 0 0 -1 
2 2.240663900414936 -33.402489626556033 -4.4999999999999929 -0.86721991701244838 -0.49792531120331912 1.1e-16 0.49792531120331912 -0.86721991701244838 1.9000000000000003e-16 7.8838174273867291e-19 2.1954356846473031e-16 1 10
2 2.2406639004149316 -33.402489626556019 4.500000000000008 -0.86721991701244838 -0.49792531120331907 1.1e-16 0.49792531120331907 -0.86721991701244838 1.9000000000000001e-16 7.8838174273869756e-19 2.1954356846473031e-16 1 10
2 5.4545454545454639 -20.000000000000004 -4.4999999999999956 0 2.2e-16 1 -1 3.1000000000000001e-16 -6.8200000000000003e-32 -3.1000000000000001e-16 -1 2.2e-16 25.454545454545464
2 -2.2406639004149413 -33.402489626556026 -4.499999999999992 -0.86721991701244783 0.49792531120332006 -1.1e-16 -0.49792531120332006 -0.86721991701244783 1.9000000000000001e-16 -7.8838174273845104e-19 2.1954356846473031e-16 1 10
2 0 -29.500000000000014 -4.4999999999999938 0 2.2e-16 1 -0.49792531120332018 -0.86721991701244783 1.9078838174273853e-16 0.86721991701244783 -0.49792531120332018 1.0954356846473044e-16 14.5
2 -2.9999999999999998e-15 -34.000000000000014 -4.4999999999999938 -1 6.7000000000000004e-16 -0 -6.7000000000000004e-16 -1 2.2e-16 1.4740000000000001e-31 2.2e-16 1 10
2 0 -29.500000000000014 -4.4999999999999938 0 2.2e-16 1 -2.8000000000000001e-16 -1 2.2e-16 1 -2.8000000000000001e-16 6.1600000000000008e-32 14.5
2 -2.2406639004149391 -33.402489626556026 4.5000000000000071 -0.86721991701244794 0.49792531120331984 -1.1e-16 -0.49792531120331984 -0.86721991701244794 1.9000000000000001e-16 -7.8838174273850035e-19 2.1954356846473031e-16 1 10
2 5.4545454545454639 -19.999999999999996 4.5000000000000044 0 -2.2e-16 -1 -0.49792531120331979 -0.86721991701244805 1.9078838174273858e-16 -0.86721991701244805 0.49792531120331979 -1.0954356846473036e-16 25.454545454545464
2 0 -29.500000000000007 4.5000000000000062 0 -2.2e-16 -1 0.49792531120331912 -0.86721991701244838 1.9078838174273865e-16 -0.86721991701244838 -0.49792531120331912 1.0954356846473021e-16 14.5
2 -1.0000000000000001e-15 -34.000000000000007 4.5000000000000062 -1 2.2e-16 -0 -2.2e-16 -1 2.2e-16 4.8400000000000002e-32 2.2e-16 1 10
2 0 -29.500000000000007 4.5000000000000062 0 -2.2e-16 -1 -2.8000000000000001e-16 -1 2.2e-16 -1 2.8000000000000001e-16 -6.1600000000000008e-32 14.5
1 -7.2199170124481364 -42.074688796680498 14.5 0 0 -1 
1 -7.2199170124481364 -42.074688796680498 14.5 0 0 -1 
Polygon3D 0
PolygonOnTriangulations 0
Surfaces 28
2 0 0 0 0 -1 2.2e-16 -1 0 0 0 2.2e-16 1 2.75
3 0 -11 0 0 -1 0 -1 0 9.6999999999999998e-16 -9.6999999999999998e-16 -0 -1 2.75
0.78539816339744839
1 0 0 0 0 -2.2e-16 1 0 -1 -2.2e-16 1 0 0 
2 10.000000000000002 -19.999999999999996 -4.4999999999999973 -0 1 -2.2e-16 0 -2.2e-16 -1 1 0 -0 10
2 10.000000000000002 1.0000000000000001e-15 4.5000000000000018 0 -1 2.2e-16 1 0 0 -0 2.2e-16 1 10
2 -10.000000000000002 -1.0000000000000001e-15 -4.5000000000000018 0 -1 2.2e-16 0 -2.2e-16 -1 -1 -0 -0 10
2 -10.000000000000002 -19.999999999999996 4.5000000000000062 -0 1 -2.2e-16 -1 -0 0 0 2.2e-16 1 10
1 -3.2600000000000001e-15 -7.9899999999999993e-15 -12 0 -2.2e-16 1 0 -1 -2.2e-16 1 0 0 
1 20 -3.2199999999999999e-15 -14.5 -1 -0 0 0 2.2e-16 1 -0 1 -2.2e-16 
2 -5.4545454545454568 -19.999999999999996 14.5 0 0 1 -1 -0 0 0 -1 0 25.45454545454546
2 -5.4545454545454568 -19.999999999999996 14.5 0 0 1 -1 -0 0 0 -1 0 25.45454545454546
5 -5.4545454545454568 -20.000000000000004 -4.4999999999999956 0 2.2e-16 1 0.49792531120331934 -0.86721991701244827 1.9078838174273863e-16 0.86721991701244827 0.49792531120331934 -1.0954356846473026e-16 15.45454545454546 10
1 -20 -3.2199999999999999e-15 -14.5 0 2.2e-16 1 1 0 -0 -0 1 -2.2e-16 
1 20 3.2199999999999999e-15 14.5 0 -2.2e-16 -1 -1 -0 0 -0 1 -2.2e-16 
5 -5.4545454545454568 -19.999999999999996 4.5000000000000044 0 2.2e-16 1 1 -1.7e-16 3.7399999999999999e-32 -1.7e-16 -1 2.2e-16 15.45454545454546 10
5 5.4545454545454639 -20.000000000000004 -4.4999999999999956 0 2.2e-16 1 -1 3.1000000000000001e-16 -6.8200000000000003e-32 -3.1000000000000001e-16 -1 2.2e-16 15.454545454545464 10
5 0 -29.500000000000014 -4.4999999999999938 0 2.2e-16 1 -0.49792531120332018 -0.86721991701244783 1.9078838174273853e-16 0.86721991701244783 -0.49792531120332018 1.0954356846473044e-16 4.5 10
5 0 -29.500000000000014 -4.4999999999999938 0 2.2e-16 1 -2.8000000000000001e-16 -1 2.2e-16 1 -2.8000000000000001e-16 6.1600000000000008e-32 4.5 10
5 5.4545454545454639 -19.999999999999996 4.5000000000000044 0 2.2e-16 1 -0.49792531120331979 -0.86721991701244805 1.9078838174273858e-16 -0.86721991701244805 0.49792531120331979 -1.0954356846473036e-16 15.454545454545464 10
5 0 -29.500000000000007 4.5000000000000062 0 2.2e-16 1 0.49792531120331912 -0.86721991701244838 1.9078838174273865e-16 -0.86721991701244838 -0.49792531120331912 1.0954356846473021e-16 4.5 10
5 0 -29.500000000000007 4.5000000000000062 0 2.2e-16 1 -2.8000000000000001e-16 -1 2.2e-16 -1 2.8000000000000001e-16 -6.1600000000000008e-32 4.5 10
1 -20 3.2199999999999999e-15 14.5 1 0 0 0 -2.2e-16 -1 0 1 -2.2e-16 
2 5.4545454545454639 -19.999999999999996 14.5 0 0 1 -1 -0 0 0 -1 0 25.454545454545464
2 5.4545454545454639 -19.999999999999996 14.5 0 0 1 -1 -0 0 0 -1 0 25.454545454545464
1 -20.000000000000004 -12.000000000000002 4.0000000000000107 0 -2.2e-16 1 1 0 0 -0 1 2.2e-16 
2 0 -29.500000000000007 14.5 0 0 1 -1 -0 0 0 -1 0 14.5
1 19.999999999999996 -12 -3.9999999999999893 0 2.2e-16 -1 -1 0 -0 0 1 2.2e-16 
2 0 -29.500000000000007 14.5 0 0 1 -1 -0 0 0 -1 0 14.5
Triangulations 0

TShapes 177
Ve
1e-07
-2.75 -0 -11
0 0

0101101
*
Ve
1.00000001e-07
-2.75 0 0
0 0

0101101
*
Ed
 1e-07 1 1 0
1  1 0 0 11
3  1 2CN 1 0 0 11
0

0101000
-177 7 +176 7 *
Ed
 1e-07 1 1 0
1  2 0 -0 6.28318530717959
2  3 1 5 -0 6.28318530717959
2  4 2 0 -0 6.28318530717959
0

0101000
+177 8 -177 8 *
Ed
 1.00000001e-07 1 1 0
1  3 0 0 6.28318530717959
2  5 1 0 0 6.28318530717959
0

0101000
+176 7 -176 7 *
Wi

0101100
-175 5 +174 0 +173 5 +175 5 *
Fa
0  1e-07 1 3

0101000
+172 4 *
Ve
1e-07
-3.75 -1e-15 -12
0 0

0101101
*
Ed
 1e-07 1 1 0
1  4 0 0 1.41421356237309
3  6 7CN 2 0 0 1.41421356237309
0

0101000
+177 8 -170 8 *
Ed
 1e-07 1 1 0
1  5 0 -0 6.28318530717959
2  8 2 0 -0 6.28318530717959
0

0101000
+170 8 -170 8 *
Wi

0101100
-169 0 +174 0 -168 0 +169 0 *
Fa
0  1e-07 2 0

0101000
+167 0 *
Ve
1e-07
20 4.5 -2e-15
0 0

0101101
*
Ve
1e-07
20 -4.5 0
0 0

0101101
*
Ed
 1e-07 1 1 0
1  6 0 10 19
0

0101000
+165 22 -164 22 *
Ve
1e-07
10 14.5 -1e-15
0 0

0101101
*
Ed
 1e-07 1 1 0
1  7 0 3.14159265358979 4.71238898038469
2  9 4 0 3.14159265358979 4.71238898038469
0

0101000
+162 24 -165 24 *
Ve
1e-07
10 -14.5 0
0 0

0101101
*
Ed
 1e-07 1 1 0
1  8 0 1.5707963267949 3.14159265358979
2  10 5 0 1.5707963267949 3.14159265358979
0

0101000
+164 26 -160 26 *
Ve
1e-07
-10 14.5 0
0 0

0101101
*
Ed
 1e-07 1 1 0
1  9 0 10 30
0

0101000
+158 22 -162 22 *
Ve
1e-07
-10 -14.5 1e-15
0 0

0101101
*
Ed
 1e-07 1 1 0
1  10 0 10 30
0

0101000
+160 22 -156 22 *
Ve
1e-07
-20 4.5 0
0 0

0101101
*
Ed
 1e-07 1 1 0
1  11 0 0 1.5707963267949
2  11 6 0 0 1.5707963267949
0

0101000
+158 24 -154 24 *
Ve
1e-07
-20 -4.5 2e-15
0 0

0101101
*
Ed
 1e-07 1 1 0
1  12 0 4.71238898038469 6.28318530717959
2  12 7 0 4.71238898038469 6.28318530717959
0

0101000
+152 26 -156 26 *
Ed
 1e-07 1 1 0
1  13 0 10 19
0

0101000
-154 22 +152 22 *
Wi

0101100
-163 21 -161 23 -159 25 -157 21 -155 21 +153 23 +151 25 -150 21 *
Wi

0101100
-173 3 *
Fa
0  1e-07 3 18

0101000
+149 0 +148 0 *
Wi

0101100
+168 0 *
Ve
1.00000004e-07
-20 -4.00000000000001 -12
0 0

0101101
*
Ve
1.00000004e-07
20 -4.00000000000001 -12
0 0

0101101
*
Ed
 1e-07 1 1 0
1  14 0 0 40
0

0101000
+145 31 -144 31 *
Ve
1.00000004e-07
-20 3.99999999999999 -12
0 0

0101101
*
Ed
 1.00000004e-07 1 1 0
1  15 0 0 8
0

0101000
+142 31 -145 31 *
Ve
1.00000004e-07
20 3.99999999999999 -12
0 0

0101101
*
Ed
 1.00000004e-07 1 1 0
1  16 0 0 8
0

0101000
+144 31 -140 31 *
Ed
 1e-07 1 1 0
1  17 0 0 40
0

0101000
+140 31 -142 31 *
Wi

0101100
+143 30 +141 30 +139 30 +138 30 *
Fa
0  1e-07 8 27

0101000
+146 4 +137 0 *
Ve
1.00000004e-07
20 -4.5 -20
0 0

0101101
*
Ed
 1e-07 1 1 0
1  18 0 1e-15 20
2  13 5 0 1e-15 20
4 G1 9 36 5 0
0

0101000
+164 26 -135 26 *
Ve
1.00000011e-07
20 -4.00000000000001 -20
0 0

0101101
*
Ed
 1.00000004e-07 1 1 0
1  19 0 10 10.5
2  14 10 0 10 10.5
0

0101000
+135 38 -133 38 *
Ed
 1.00000004e-07 1 1 0
1  20 0 0 8
0

0101000
+144 39 -133 39 *
Ve
1.00000011e-07
20 4 -20
0 0

0101101
*
Ed
 1.00000004e-07 1 1 0
1  21 0 0 8
0

0101000
+140 39 -130 39 *
Ve
1.00000004e-07
20 4.5 -20
0 0

0101101
*
Ed
 1.00000004e-07 1 1 0
1  22 0 18.5 19
2  14 11 0 18.5 19
0

0101000
+130 38 -128 38 *
Ed
 1e-07 1 1 0
1  23 0 -3e-15 20
2  15 4 0 -3e-15 20
4 G1 9 42 4 0
0

0101000
+128 24 -165 24 *
Wi

0101100
-163 34 -134 35 -132 37 +131 0 -139 40 -129 0 -127 37 -126 41 *
Fa
0  1e-07 9 33

0101000
+125 0 *
Ve
1e-07
10 14.5 -20
0 0

0101101
*
Ed
 1e-07 1 1 0
1  24 0 4.71238898038469 6.28318530717959
2  16 4 0 4.71238898038469 6.28318530717959
2  17 12 0 4.71238898038469 6.28318530717959
4 G1 4 0 12 0
0

0101000
+123 24 -128 24 *
Ed
 1e-07 1 1 0
1  25 0 -3e-15 20
2  18 4 0 -3e-15 20
4 G1 4 0 13 42
0

0101000
+123 24 -162 24 *
Wi

0101100
+122 0 -121 0 +126 0 -161 0 *
Fa
0  1e-07 4 0

0101000
+120 0 *
Ve
1e-07
10 -14.5 -20
0 0

0101101
*
Ed
 1e-07 1 1 0
1  26 0 3e-15 20
2  19 5 0 3e-15 20
4 G1 5 0 14 36
0

0101000
+160 26 -118 26 *
Ed
 1e-07 1 1 0
1  27 0 0 1.5707963267949
2  20 5 0 0 1.5707963267949
2  21 15 0 0 1.5707963267949
4 G1 5 0 15 0
0

0101000
+135 26 -118 26 *
Wi

0101100
+159 0 -134 0 +117 0 -116 0 *
Fa
0  1e-07 5 0

0101000
+115 0 *
Ve
1e-07
-10 14.5 -20
0 0

0101101
*
Ed
 1e-07 1 1 0
1  28 0 -3e-15 20
2  22 6 0 -3e-15 20
4 G1 13 42 6 0
0

0101000
+158 24 -113 24 *
Ve
1e-07
-2.24066390041494 14.5 -33.402489626556
0 0

0101101
*
Ed
 1e-07 1 1 0
1  29 0 0 1.04959154330021
2  23 16 0 0 1.04959154330021
4 G1 13 42 16 0
0

0101000
+113 24 -111 24 *
Ve
1e-07
2.24066390041494 14.5 -33.402489626556
0 0

0101101
*
Ed
 1e-07 1 1 0
1  30 0 -0 1.04959154330021
2  24 12 0 -0 1.04959154330021
4 G1 13 42 12 0
0

0101000
+109 24 -123 24 *
Ve
1e-07
-3e-15 14.5 -34
0 0

0101101
*
Ed
 1e-07 1 1 0
1  31 0 0 0.521204783494682
2  25 17 0 0 0.521204783494682
4 G1 13 42 17 0
0

0101000
+111 24 -107 24 *
Ed
 1e-07 1 1 0
1  32 0 0 0.521204783494682
2  26 18 0 0 0.521204783494682
4 G1 13 42 18 0
0

0101000
+107 24 -109 24 *
Wi

0101100
-157 48 +112 0 +121 0 +110 0 +108 0 +106 0 +105 0 *
Fa
0  1e-07 13 46

0101000
+104 47 *
Ve
1e-07
-10 -14.5 -20
0 0

0101101
*
Ed
 1e-07 1 1 0
1  33 0 2e-15 20
2  27 7 0 2e-15 20
4 G1 14 36 7 0
0

0101000
+102 26 -156 26 *
Ve
1e-07
2.24066390041493 -14.5 -33.402489626556
0 0

0101101
*
Ed
 1e-07 1 1 0
1  34 0 -0 1.04959154330021
2  28 15 0 -0 1.04959154330021
4 G1 14 36 15 0
0

0101000
+118 26 -100 26 *
Ve
1e-07
-2.24066390041494 -14.5 -33.402489626556
0 0

0101101
*
Ed
 1e-07 1 1 0
1  35 0 -0 1.04959154330021
2  29 19 0 -0 1.04959154330021
4 G1 14 36 19 0
0

0101000
+98 26 -102 26 *
Ve
1e-07
-1e-15 -14.5 -34
0 0

0101101
*
Ed
 1e-07 1 1 0
1  36 0 -0 0.521204783494682
2  30 20 0 -0 0.521204783494682
4 G1 14 36 20 0
0

0101000
+100 26 -96 26 *
Ed
 1e-07 1 1 0
1  37 0 0 0.521204783494682
2  31 21 0 0 0.521204783494682
4 G1 14 36 21 0
0

0101000
+96 26 -98 26 *
Wi

0101100
-155 50 +117 0 +101 0 +99 0 +97 0 +95 0 +94 0 *
Fa
0  1e-07 14 46

0101000
+93 49 *
Ve
1e-07
-20 4.5 -20
0 0

0101101
*
Ed
 1e-07 1 1 0
1  38 0 -1e-15 20
2  32 6 0 -1e-15 20
4 G1 6 0 22 42
0

0101000
+154 24 -91 24 *
Ed
 1e-07 1 1 0
1  39 0 0 1.5707963267949
2  33 6 0 0 1.5707963267949
2  34 16 0 0 1.5707963267949
4 G1 6 0 16 0
0

0101000
+113 24 -91 24 *
Wi

0101100
+153 0 -112 0 +90 0 -89 0 *
Fa
0  1e-07 6 0

0101000
+88 0 *
Ve
1e-07
-20 -4.5 -20
0 0

0101101
*
Ed
 1e-07 1 1 0
1  40 0 0 1.5707963267949
2  35 7 0 0 1.5707963267949
2  36 19 0 0 1.5707963267949
4 G1 7 0 19 0
0

0101000
+86 26 -102 26 *
Ed
 1e-07 1 1 0
1  41 0 2e-15 20
2  37 7 0 2e-15 20
4 G1 7 0 22 36
0

0101000
+86 26 -152 26 *
Wi

0101100
+85 0 -84 0 +101 0 -151 0 *
Fa
0  1e-07 7 0

0101000
+83 0 *
Ve
1.00000007e-07
-20 4 -20
0 0

0101101
*
Ed
 1e-07 1 1 0
1  42 0 18.5 19
2  38 23 0 18.5 19
0

0101000
+81 38 -91 38 *
Ed
 1.00000004e-07 1 1 0
1  43 0 0 8
0

0101000
+142 39 -81 39 *
Ve
1.00000007e-07
-20 -4.00000000000001 -20
0 0

0101101
*
Ed
 1.00000004e-07 1 1 0
1  44 0 0 8
0

0101000
+145 39 -78 39 *
Ed
 1e-07 1 1 0
1  45 0 9.99999999999999 10.5
2  38 24 0 9.99999999999999 10.5
0

0101000
+86 38 -78 38 *
Wi

0101100
-90 41 +80 37 +79 0 -141 40 -77 0 +76 37 -84 35 -150 34 *
Fa
0  1e-07 22 33

0101000
+75 0 *
Ve
1.0000001e-07
7.21991701244812 -3.99999999999999 -42.0746887966805
0 0

0101101
*
Ed
 1e-07 1 1 0
1  46 0 2.09200111028958 3.14159265358979
2  39 10 37 2.09200111028958 3.14159265358979
0

0101000
+73 39 -133 39 *
Ve
1.00000008e-07
0 -3.99999999999999 -44
0 0

0101101
*
Ed
 1e-07 1 1 0
1  47 0 1.5707963267949 2.09200111028958
2  40 26 37 1.5707963267949 2.09200111028958
0

0101000
+71 39 -73 39 *
Ve
1.00000009e-07
-7.21991701244814 -3.99999999999999 -42.0746887966805
0 0

0101101
*
Ed
 1e-07 1 1 0
1  48 0 1.04959154330021 1.5707963267949
2  40 26 37 1.04959154330021 1.5707963267949
0

0101000
+69 39 -71 39 *
Ed
 1e-07 1 1 0
1  49 0 0 1.04959154330021
2  41 24 37 0 1.04959154330021
0

0101000
+78 39 -69 39 *
Wi

0101100
-143 40 -131 0 +72 0 +70 0 +68 0 +67 0 +77 0 *
Fa
0  1e-07 25 0

0101000
+66 0 *
Ve
1.0000001e-07
-7.21991701244814 4.00000000000001 -42.0746887966805
0 0

0101101
*
Ed
 1e-07 1 1 0
1  50 0 0 1.04959154330021
2  42 23 37 0 1.04959154330021
0

0101000
+81 39 -64 39 *
Ve
1.00000008e-07
0 4.00000000000001 -44
0 0

0101101
*
Ed
 1e-07 1 1 0
1  51 0 1.04959154330021 1.5707963267949
2  43 28 37 1.04959154330021 1.5707963267949
0

0101000
+64 39 -62 39 *
Ve
1.00000007e-07
7.21991701244812 4.00000000000001 -42.0746887966805
0 0

0101101
*
Ed
 1e-07 1 1 0
1  52 0 1.5707963267949 2.09200111028958
2  43 28 37 1.5707963267949 2.09200111028958
0

0101000
+62 39 -60 39 *
Ed
 1e-07 1 1 0
1  53 0 2.09200111028958 3.14159265358979
2  44 11 37 2.09200111028958 3.14159265358979
0

0101000
+60 39 -130 39 *
Wi

0101100
-138 40 -79 0 -63 0 -61 0 -59 0 -58 0 +129 0 *
Fa
0  1e-07 27 0

0101000
+57 0 *
Ve
1e-07
7.21991701244812 -4.5 -42.0746887966805
0 0

0101101
*
Ed
 1e-07 1 1 0
1  54 0 -0 1.04959154330021
2  45 10 12 -0 1.04959154330021
2  46 15 0 -0 1.04959154330021
4 G1 10 12 15 0
0

0101000
+135 26 -55 26 *
Ed
 1e-07 1 1 0
1  55 0 10 10.5
2  47 10 0 10 10.5
2  48 26 0 10 10.5
4 G1 10 0 26 0
0

0101000
+55 38 -73 38 *
Wi

0101100
+54 35 -132 37 +72 0 +53 37 *
Fa
0  1e-07 10 37

0101000
+52 0 *
Ve
1e-07
7.21991701244813 4.5 -42.0746887966805
0 0

0101101
*
Ed
 1e-07 1 1 0
1  56 0 -0 1.04959154330021
2  49 11 51 -0 1.04959154330021
2  50 12 0 -0 1.04959154330021
4 G1 11 51 12 0
0

0101000
+50 24 -128 24 *
Ed
 1e-07 1 1 0
1  57 0 18.5 19
2  47 11 0 18.5 19
2  48 28 0 18.5 19
4 G1 11 0 28 0
0

0101000
+60 38 -50 38 *
Wi

0101100
-58 0 -127 37 +49 41 +48 37 *
Fa
0  1e-07 11 37

0101000
+47 0 *
Ed
 1e-07 1 1 0
1  58 0 4.71238898038469 6.28318530717959
2  51 12 0 4.71238898038469 6.28318530717959
2  52 18 0 4.71238898038469 6.28318530717959
4 G1 12 0 18 0
0

0101000
+109 24 -50 24 *
Wi

0101100
-45 0 +108 0 -49 0 +122 0 *
Fa
0  1e-07 12 0

0101000
+44 0 *
Ed
 1e-07 1 1 0
1  59 0 0 1.5707963267949
2  53 15 0 0 1.5707963267949
2  54 20 0 0 1.5707963267949
4 G1 15 0 20 0
0

0101000
+55 26 -100 26 *
Wi

0101100
-116 0 +54 0 -99 0 +42 0 *
Fa
0  1e-07 15 0

0101000
+41 0 *
Ve
1e-07
-7.21991701244814 4.5 -42.0746887966805
0 0

0101101
*
Ed
 1e-07 1 1 0
1  60 0 0 1.04959154330021
2  55 16 0 0 1.04959154330021
2  56 23 51 0 1.04959154330021
4 G1 16 0 23 51
0

0101000
+91 24 -39 24 *
Ed
 1e-07 1 1 0
1  61 0 4.71238898038469 6.28318530717959
2  57 16 0 4.71238898038469 6.28318530717959
2  58 17 0 4.71238898038469 6.28318530717959
4 G1 16 0 17 0
0

0101000
+111 24 -39 24 *
Wi

0101100
-89 0 +110 0 -38 0 +37 0 *
Fa
0  1e-07 16 0

0101000
+36 0 *
Ve
1e-07
-1e-14 4.5 -44
0 0

0101101
*
Ed
 1e-07 1 1 0
1  62 0 0 0.521204783494682
2  59 17 0 0 0.521204783494682
2  60 28 51 0 0.521204783494682
4 G1 17 0 28 51
0

0101000
+39 24 -34 24 *
Ed
 1e-07 1 1 0
1  63 0 4.71238898038469 6.28318530717959
2  61 17 0 4.71238898038469 6.28318530717959
2  62 18 0 4.71238898038469 6.28318530717959
4 G1 17 0 18 0
0

0101000
+107 24 -34 24 *
Wi

0101100
-37 0 +106 0 -33 0 +32 0 *
Fa
0  1e-07 17 0

0101000
+31 0 *
Ed
 1e-07 1 1 0
1  64 0 0 0.521204783494682
2  63 18 0 0 0.521204783494682
2  64 28 51 0 0.521204783494682
4 G1 18 0 28 51
0

0101000
+34 24 -50 24 *
Wi

0101100
-32 0 +105 0 -29 0 +45 0 *
Fa
0  1e-07 18 0

0101000
+28 0 *
Ve
1e-07
-7.21991701244814 -4.5 -42.0746887966805
0 0

0101101
*
Ed
 1e-07 1 1 0
1  65 0 0 1.5707963267949
2  65 19 0 0 1.5707963267949
2  66 21 0 0 1.5707963267949
4 G1 19 0 21 0
0

0101000
+26 26 -98 26 *
Ed
 1e-07 1 1 0
1  66 0 -0 1.04959154330021
2  67 19 0 -0 1.04959154330021
2  68 24 12 -0 1.04959154330021
4 G1 19 0 24 12
0

0101000
+26 26 -86 26 *
Wi

0101100
-25 0 +24 0 -97 0 +85 0 *
Fa
0  1e-07 19 0

0101000
+23 0 *
Ve
1e-07
-4e-15 -4.5 -44
0 0

0101101
*
Ed
 1e-07 1 1 0
1  67 0 -0 0.521204783494682
2  69 20 0 -0 0.521204783494682
2  70 26 12 -0 0.521204783494682
4 G1 20 0 26 12
0

0101000
+55 26 -21 26 *
Ed
 1e-07 1 1 0
1  68 0 0 1.5707963267949
2  71 20 0 0 1.5707963267949
2  72 21 0 0 1.5707963267949
4 G1 20 0 21 0
0

0101000
+21 26 -96 26 *
Wi

0101100
-42 0 +20 0 -95 0 +19 0 *
Fa
0  1e-07 20 0

0101000
+18 0 *
Ed
 1e-07 1 1 0
1  69 0 0 0.521204783494682
2  73 21 0 0 0.521204783494682
2  74 26 12 0 0.521204783494682
4 G1 21 0 26 12
0

0101000
+21 26 -26 26 *
Wi

0101100
-19 0 +16 0 -94 0 +25 0 *
Fa
0  1e-07 21 0

0101000
+15 0 *
Ed
 1e-07 1 1 0
1  70 0 18.5 19
2  75 23 0 18.5 19
2  76 28 0 18.5 19
0

0101000
+64 38 -39 38 *
Wi

0101100
-63 0 -13 37 +38 41 +80 37 *
Fa
0  1e-07 23 37

0101000
+12 0 *
Ed
 1e-07 1 1 0
1  71 0 9.99999999999999 10.5
2  75 24 0 9.99999999999999 10.5
2  76 26 0 9.99999999999999 10.5
0

0101000
+26 38 -69 38 *
Wi

0101100
+24 35 -10 37 +67 0 +76 37 *
Fa
0  1e-07 24 37

0101000
+9 0 *
Wi

0101100
-53 37 +70 0 +68 0 +10 37 +16 35 +20 35 *
Fa
0  1e-07 26 37

0101000
+7 0 *
Wi

0101100
-48 37 +29 41 +33 41 +13 37 -61 0 -59 0 *
Fa
0  1e-07 28 37

0101000
+5 0 *
Sh

0101100
+171 2 -166 0 +147 2 -136 2 -124 32 -119 43 +114 44 -103 45 -92 45 -87 43 
+82 44 -74 32 -65 32 -56 32 +51 32 +46 32 +43 43 -40 44 +35 43 +30 43 
+27 43 -22 44 -17 44 -14 44 +11 32 +8 32 +6 32 +4 32 *
So

0100000
+3 0 *
Co

1100000
+2 1 *

+1 0 